<svg width="86" height="4" fill="none" xmlns="http://www.w3.org/2000/svg"><path d="M15.172.109l.375.117.375.11c.24.074.478.151.719.218l.75.203c.176.049.348.073.515.078l.375.016.375.008c.188.005.38-.002.57-.032l.376-.062.375-.055c.252-.039.505-.081.757-.117l.375-.047.375-.055a2.712 2.712 0 011.188.102l.375.11.351.117.008-.008.375-.196.375-.203.438-.164a1.63 1.63 0 01.484-.031c.167.013.325.046.469.102l.39.21.375.258.211.149.204-.125.375-.227c.319-.196.678-.32 1.062-.328l.39.031.75.14c.069.013.144.01.235-.023l.75-.265a2.038 2.038 0 011.445.015l.375.141.375.149c.23.088.46.162.688.234l.375.117.375.125c.153.048.3.064.437.063l.375-.008h.375c.208-.003.417-.018.625-.047l.75-.11c.172-.023.355-.07.54-.14l.75-.281.43-.11c.282-.033.56.007.82.102l.382.187.75.47.008.007.344-.078.375-.094c.379-.094.77-.11 1.156-.047l.375.055.375.062c.031.005.075.007.156-.03l.75-.36A2.89 2.89 0 0144.844.28l.375-.015.375-.008c.207-.007.416-.029.625-.062l.375-.055.375-.063.414-.023a2.07 2.07 0 011.078.414l.375.273.219.164.562-.328c.4-.233.846-.308 1.281-.21l.43.156.375.187.375.195.016.008.367-.11.375-.116a2.13 2.13 0 011.398.062l.375.14.375.15a.896.896 0 00.36.062l.375-.008.375-.016c.03 0 .101-.01.226-.093l.75-.5.414-.204c.15-.052.312-.088.485-.093a1.6 1.6 0 01.492.062l.43.188.375.226.343.211.313-.11.375-.132a3.126 3.126 0 011.11-.172l.374.016.375.008c.26.007.521.022.782.039l.75.047c.166.01.337 0 .507-.032l.75-.14c.288-.054.578-.091.868-.11l.75-.047c.261-.016.527-.024.789-.03l.375-.009.375-.015c.4-.01.788.067 1.156.218l.75.313a.92.92 0 00.36.078l.374-.008h.375a2.07 2.07 0 00.508-.07L72 .624l.375-.101c.486-.126.97-.07 1.414.132l.75.344c.07.032.108.036.133.031l.75-.156c.27-.055.549-.103.82-.14l.375-.047.375-.055c.19-.026.382-.07.578-.133l.75-.234A2.74 2.74 0 0179.5.148l.375.054.375.047c.268.035.537.076.805.125l.375.07.375.063c.141.026.282.031.422.031h.289l.562-.023c.23-.01.459.004.688.023H85c.331 0 .607.174.79.422l.21.149v.539c0 .51-.352.79-.516.882-.153.087-.295.11-.343.118a1.37 1.37 0 01-.266.015 3.972 3.972 0 01-.375-.031l-.375-.047-.375-.055a3.312 3.312 0 00-.578-.023l-.375.023-.375.016a4.297 4.297 0 01-.977-.07l-.375-.07-.375-.063c-.231-.043-.464-.08-.695-.11l-.375-.046-.375-.055a.742.742 0 00-.32.04l-.75.233a5.563 5.563 0 01-.922.211l-.375.047-.375.055c-.227.031-.453.07-.68.117l-.375.078-.375.07c-.474.097-.94.032-1.367-.163l-.75-.344c-.034-.016-.058-.015-.063-.016-.004 0-.012-.003-.023 0l-.375.094-.375.101c-.326.085-.658.13-.992.133h-.375l-.375.008a2.916 2.916 0 01-1.14-.226l-.75-.313a.842.842 0 00-.345-.07l-.375.008-.375.015c-.236.007-.474.016-.71.031l-.75.047c-.21.014-.422.04-.633.078l-.75.141c-.329.06-.66.084-.993.063l-.374-.024-.376-.031c-.238-.015-.48-.024-.718-.031l-.375-.008-.375-.016a1.112 1.112 0 00-.39.07l-.75.25a1.862 1.862 0 01-1.595-.18l-.375-.226-.21-.125-.22.149-.374.25a2.44 2.44 0 01-1.274.43l-.375.015-.375.008a2.895 2.895 0 01-1.14-.196l-.75-.296c-.048-.019-.072-.017-.102-.008l-.375.117-.375.11a1.986 1.986 0 01-1.492-.141l-.375-.196-.266-.125-.273.157-.375.218a1.65 1.65 0 01-.953.227 1.724 1.724 0 01-.89-.336l-.75-.547c-.018-.013-.038-.018-.048-.023l-.336.047-.375.062c-.29.047-.583.077-.875.086l-.375.008-.375.015a.887.887 0 00-.351.094l-.375.18-.375.172a2.27 2.27 0 01-1.344.203l-.75-.125a.85.85 0 00-.344.016l-.75.187c-.552.137-1.08.012-1.523-.266l-.375-.234-.336-.203-.281.11-.375.14a4.471 4.471 0 01-.961.25l-.375.047-.375.054c-.29.041-.584.067-.875.07h-.375l-.375.009a3.386 3.386 0 01-1.063-.157l-.75-.234c-.27-.085-.544-.178-.812-.281l-.375-.149-.375-.14a.178.178 0 00-.024-.008h-.031l-.375.14-.375.133a2.418 2.418 0 01-1.266.11l-.375-.07-.375-.063c-.01.004-.026.01-.047.023l-.375.227-.375.234c-.261.161-.577.27-.93.258a1.714 1.714 0 01-.905-.312l-.375-.258-.258-.172-.211.117-.375.195c-.464.246-.99.32-1.516.157l-.75-.235a.71.71 0 00-.312-.031l-.75.11c-.246.034-.497.07-.743.109l-.375.054-.375.063a5.17 5.17 0 01-.93.055l-.374-.008-.375-.016a4.166 4.166 0 01-.985-.148l-.375-.102-.375-.11a27 27 0 01-.78-.226l-.75-.234a.335.335 0 00-.196 0l-.375.094-.375.101a2.84 2.84 0 01-1.164.063l-.375-.063-.375-.055a.33.33 0 00-.196.032l-.75.328a2.81 2.81 0 01-1.164.242l-.375-.008H8.86a3.382 3.382 0 00-.578.04l-.75.124C6.995 3 6.496 2.85 6.078 2.577l-.75-.484-.07-.031-.367.047-.375.054a1.259 1.259 0 00-.414.149l-.75.406c-.636.347-1.345.214-1.891.016l-.625-.227A.985.985 0 010 1.538a1 1 0 011-1h.273l.172.063.696.25c.158.058.26.082.312.086l.32-.18.375-.203c.34-.186.706-.312 1.086-.367l.75-.11.391-.015c.381.022.737.15 1.047.351l.375.25.375.242c.02.013.036.019.047.024l.008.008.367-.063.375-.054A5.38 5.38 0 018.89.75h.375l.375.007a.824.824 0 00.336-.078l.75-.328c.41-.179.852-.243 1.304-.172l.375.055.375.062c.11.017.218.007.336-.023l.375-.094.375-.102c.433-.114.878-.1 1.305.032z" fill="#A89484"/></svg>