<svg width="360" height="5" fill="none" xmlns="http://www.w3.org/2000/svg"><path d="M21.21.02c.747.013 1.417.295 1.981.703l.563.399.445.34.363-.153.563-.223a4.036 4.036 0 011.781-.304l1.125.07c.25.016.506.011.762-.035l1.125-.211A6.555 6.555 0 0131.383.5l.562.036.563.023c.446.02.893.069 1.336.152l1.125.211c.415.079.829.178 1.242.293l.562.153.563.164c.16.045.31.05.457.023l1.125-.21c.339-.062.68-.137 1.02-.223L41.062.84a5.296 5.296 0 011.583-.164l.562.035.563.024c.5.026.992.122 1.476.27l.563.175.562.164c.232.071.456.108.668.106l1.125-.024c.055 0 .168-.014.352-.129L49.64.594C50.307.18 51.098 0 51.926.208l1.125.28c.182.046.356.052.527.024l.563-.094.562-.082a5.14 5.14 0 011.582-.011l.563.093.562.082c.278.043.557.049.832.036l1.125-.047a4.579 4.579 0 011.664.234l.563.188.562.175c.242.08.472.123.692.13l.562.011.563.023c.142.004.31-.023.504-.105l.562-.246.563-.234.609-.176c.406-.074.813-.06 1.207.047l.574.222.563.293.562.282c.24.122.457.186.645.21l.562.082.563.07c.21.028.418.019.632-.023l.563-.105.563-.117c.403-.08.814-.145 1.218-.2l.563-.07.562-.082a5.29 5.29 0 011.559.024l1.125.187c.22.036.448.034.668 0l.562-.094.563-.082a6.528 6.528 0 011.453-.058l.563.035.562.047c.269.019.538.002.809-.035l.562-.07.563-.083c.377-.053.758-.102 1.136-.152l.563-.082.562-.07a5.977 5.977 0 011.5-.012l.563.07.562.059c.143.017.296.011.469-.047l.563-.2.562-.187a4.488 4.488 0 011.688-.234l.562.035.563.023c.49.027.974.12 1.453.258l.562.153.563.164c.216.062.424.082.62.07l.563-.035.563-.024c.411-.025.83-.04 1.242-.035l.562.012h.563c.398.005.797.022 1.195.047l1.125.07a1.3 1.3 0 00.528-.082l1.125-.398a4.27 4.27 0 011.722-.247l1.125.07a5.594 5.594 0 011.535.329l1.125.398c.229.083.446.126.645.13l.562.011h.563c.282.004.57-.01.855-.059l.563-.093.562-.106c.31-.053.624-.117.938-.21l.562-.177.563-.164c.845-.252 1.668-.08 2.355.352l1.125.703a.575.575 0 00.153.07c.023.007.04.013.047.012l1.125-.094a6.259 6.259 0 011.476.047l1.125.164c.19.029.378.02.574-.023l.563-.129.562-.117c.347-.077.695-.172 1.043-.27l.563-.152.562-.164a3.211 3.211 0 012.11.129l1.125.468a.83.83 0 00.398.07l1.125-.116a7.586 7.586 0 011.406-.012l1.125.094a.522.522 0 00.305-.07l1.125-.587a4.217 4.217 0 011.746-.48l.563-.024.562-.035a3.72 3.72 0 011.887.434l1.125.586a.694.694 0 00.363.094l1.125-.047c.404-.019.815-.028 1.219-.024l1.125.024c.195.001.4-.032.621-.106l.563-.199.562-.187a7.737 7.737 0 011.395-.329l.562-.082.563-.07a4.163 4.163 0 011.769.129l.563.164.562.176c.433.129.864.284 1.289.469l1.125.492c.018.007.031.01.035.011l.012-.011 1.125-.375a8.31 8.31 0 011.371-.34l1.125-.188a4.591 4.591 0 011.664.047l1.125.235c.31.064.619.106.926.129l.562.046.563.036c.305.022.62.02.926 0l1.125-.07c.448-.03.899-.027 1.347.011l1.125.094c.316.026.634.034.95.023l.562-.012.563-.023a5.805 5.805 0 011.511.152l1.125.258c.24.056.474.083.703.07l.563-.035.562-.023c.33-.018.665-.058.997-.106l1.125-.164a4.933 4.933 0 011.605.036l1.125.21c.271.05.543.067.809.06l1.125-.024c.15-.005.33-.043.539-.141l.562-.27.563-.257a2.902 2.902 0 011.711-.258l.586.164 1.125.422c.026.01.04.01.046.012.003 0 .019.009.047 0l.563-.2.562-.187a6.316 6.316 0 011.489-.328l1.125-.094a5.193 5.193 0 011.582.094l1.125.257a.507.507 0 00.293-.023l.562-.21.563-.2a3.006 3.006 0 012.214.058l.563.247.562.234c.293.123.579.21.856.27l.562.128.563.118c.239.051.473.073.703.058l.563-.047.562-.035a26 26 0 001.066-.094l1.125-.117a5.096 5.096 0 011.606.082l.562.117.504.106c.011-.006.03-.012.047-.024l.563-.375.562-.363c.646-.424 1.419-.642 2.25-.469l1.125.235c.405.085.815.181 1.219.293l.562.164.563.152.609-.305.563-.292c.732-.373 1.551-.444 2.344-.141l.562.223.563.21c.207.08.392.109.562.106l.563-.012h.562c.429-.007.861.008 1.289.047l.563.047.562.059c.269.024.539.018.809-.012l.562-.07.563-.059a4.506 4.506 0 011.687.129l.563.152.562.14c.233.063.462.092.68.083l1.125-.047c.215-.01.439-.056.68-.14l1.125-.4a5.516 5.516 0 011.546-.304l.563-.023.562-.035a9.97 9.97 0 00.985-.094l.562-.094.563-.082a4.015 4.015 0 011.793.129l1.125.352c.34.104.681.19 1.019.27l.563.14.562.129c.285.066.566.106.844.117l.563.023.562.012c.215.008.437-.007.668-.07l.563-.164.562-.153a3.47 3.47 0 011.981.035l.562.188.563.176c.254.08.5.117.738.129l.562.035.563.023c.146.007.312-.018.504-.094l1.125-.445c.405-.16.811-.304 1.218-.433l1.125-.352a3.04 3.04 0 012.192.129l.562.246.563.258c.302.135.602.23.891.304l.562.153.562.14c.179.046.35.05.516.024l.563-.082.562-.094c.414-.067.827-.12 1.242-.152l.563-.047.562-.035c.272-.02.551-.074.832-.153l.563-.152.562-.164a3.602 3.602 0 011.922-.012l1.125.305c.24.065.478.1.703.094l1.125-.024c.401-.01.807-.01 1.207 0l1.125.024c.155.003.33-.015.528-.094l.562-.234.563-.223a2.906 2.906 0 012.273.047l.563.246.562.234c.3.13.594.236.879.305l.563.129.492.129.035-.024 1.125-.726c.554-.357 1.18-.59 1.863-.621l1.125-.047a5.727 5.727 0 011.524.129l1.125.258c.453.103.905.246 1.347.421l1.125.446 1.125-.469a3.053 3.053 0 012.192-.07l.562.199.563.187c.269.093.533.151.785.176l1.125.117c.179.017.364-.002.562-.058l.563-.164.562-.153c.379-.107.759-.213 1.137-.316l.563-.152.562-.164a3.643 3.643 0 011.91 0l1.125.304c.098.026.187.02.293-.012l1.125-.351c.801-.246 1.603-.114 2.297.27l.563.304.562.317.012.011.539-.152.562-.164c.428-.122.858-.221 1.289-.293l1.125-.188a3.846 3.846 0 011.84.141l.563.188.562.175c.225.073.433.11.633.106l1.125-.024c.253-.004.51-.038.774-.105l1.124-.281a4.74 4.74 0 011.653-.13l1.125.118a1.44 1.44 0 00.551-.059l1.125-.328a4.171 4.171 0 011.746-.14l.562.082.563.07c.567.078 1.117.27 1.629.539l.562.293.445.234.446-.21.562-.27a4.276 4.276 0 011.746-.434l.563-.023.562-.012a3.782 3.782 0 011.852.445l.562.293.329.176.386-.258.563-.386.597-.317a2.515 2.515 0 011.325-.14l.679.21 1.125.516c.108.05.154.042.188.035l.562-.105.563-.117a3.48 3.48 0 011.957.152l.562.223.563.21c.246.094.485.138.703.153l.562.035.563.047c.084.005.2-.014.363-.094l.563-.27.562-.28a2.878 2.878 0 011.723-.27l.598.164 1.125.422c.187.071.346.102.492.094l1.125-.07c.093-.006.244-.043.445-.165l1.125-.68c.645-.39 1.396-.57 2.191-.41l.563.106.562.117c.458.092.913.23 1.36.398l.222.082h2.438c.54 0 .99.3 1.254.727l.246.234v.68c0 .519-.258.88-.41 1.043a1.57 1.57 0 01-.375.293c-.158.088-.31.133-.375.152a4.02 4.02 0 01-.457.106l-.375.07-.375.059c-.626.11-1.229-.036-1.723-.223l-1.125-.422a5.753 5.753 0 00-.89-.258l-.563-.117-.551-.094c-.013.006-.042.007-.07.024l-1.125.68a3.93 3.93 0 01-1.805.586l-1.125.07a4.218 4.218 0 01-1.758-.281l-.562-.211-.527-.188-.528.258-.562.27a3.703 3.703 0 01-1.887.386l-1.125-.07a5.423 5.423 0 01-1.547-.352l-1.125-.422a.506.506 0 00-.293-.035l-1.125.235a3.264 3.264 0 01-2.062-.246l-.563-.27-.351-.152-.422.281-.563.387a2.673 2.673 0 01-1.289.468 2.52 2.52 0 01-1.371-.293l-1.125-.585a.797.797 0 00-.398-.106l-.563.012-.562.023a1.22 1.22 0 00-.504.13l-.563.28-.562.27a2.703 2.703 0 01-2.485-.047l-.562-.305-.563-.293a1.903 1.903 0 00-.621-.21l-.562-.083-.563-.07a1.19 1.19 0 00-.504.035l-1.125.328a4.435 4.435 0 01-1.699.164l-.562-.058-.563-.047a1.7 1.7 0 00-.598.047l-1.124.281a6.378 6.378 0 01-1.477.2l-1.125.023a4.936 4.936 0 01-1.617-.246l-1.125-.375a.845.845 0 00-.41-.035l-1.125.187a8.53 8.53 0 00-.961.223l-.563.164-.562.152a2.933 2.933 0 01-2.262-.27l-.563-.316-.562-.305h-.012l-.504.153-.562.176a3.53 3.53 0 01-1.957.035l-1.125-.305a.634.634 0 00-.34 0l-.563.164-.562.152c-.37.101-.743.2-1.113.305l-.563.164-.562.153a4.537 4.537 0 01-1.688.152l-.562-.047-.563-.059a6.489 6.489 0 01-1.465-.328l-.562-.187-.563-.2h-.023a.235.235 0 00-.035.012l-1.125.47a2.942 2.942 0 01-2.25.01l-1.125-.445a6.147 6.147 0 00-.903-.28l-1.125-.259a2.74 2.74 0 00-.726-.07l-.563.024-.562.035c-.063.002-.193.015-.387.14l-1.125.727c-.66.426-1.448.635-2.285.433l-.563-.14-.562-.13a8.313 8.313 0 01-1.371-.468l-.563-.246-.562-.234-.539.21-.563.223a4.312 4.312 0 01-1.722.317l-1.125-.024c-.347-.01-.696-.02-1.043-.011l-.563.023-.562.012a5.418 5.418 0 01-1.547-.188l-1.125-.304a.595.595 0 00-.328 0l-.563.152-.562.164c-.466.13-.942.21-1.418.246l-.563.047-.562.035c-.332.025-.675.063-1.008.117l-1.125.188a4.235 4.235 0 01-1.735-.082l-.562-.14-.562-.153a8.522 8.522 0 01-1.36-.469l-.562-.258-.563-.246-.047-.023-.011.011-1.125.352c-.341.108-.688.227-1.032.363l-1.125.446a4.169 4.169 0 01-1.746.304l-.562-.035-.563-.023a6.012 6.012 0 01-1.512-.27l-1.125-.351a.442.442 0 00-.269-.012l-1.125.304a5.174 5.174 0 01-1.582.188l-1.125-.047a7.493 7.493 0 01-1.406-.187l-1.125-.258a18.33 18.33 0 01-1.231-.328l-1.125-.352a1.014 1.014 0 00-.457-.035l-.562.082-.563.094a12.74 12.74 0 01-1.265.129l-.563.023-.562.035a2.52 2.52 0 00-.704.14l-1.125.4a5.415 5.415 0 01-1.57.304l-1.125.047a5.22 5.22 0 01-1.57-.176l-1.125-.305a1.505 1.505 0 00-.563-.046l-.562.07-.563.058a7.054 7.054 0 01-1.441.012l-1.125-.094a8.99 8.99 0 00-.961-.035h-.563l-.562.012a4.516 4.516 0 01-1.688-.305l-.562-.21-.504-.188-.527.27-.563.28c-.678.346-1.436.458-2.203.247l-.562-.164-.563-.153a17.229 17.229 0 00-1.031-.246l-.563-.117-.515-.117c-.012.006-.029.023-.047.035l-.563.363-.562.375c-.647.425-1.43.633-2.262.457l-1.125-.234a2.045 2.045 0 00-.644-.035l-.563.058-.562.07c-.394.044-.79.08-1.184.106l-1.125.07a5.554 5.554 0 01-1.547-.117l-.562-.117-.563-.129a7.882 7.882 0 01-1.394-.433l-.563-.235-.562-.246c-.014-.005-.033 0-.036 0l-1.125.399a3.502 3.502 0 01-1.957.14l-1.125-.258a2.195 2.195 0 00-.668-.035l-1.125.094a3.256 3.256 0 00-.761.176l-.563.187-.562.2a3.129 3.129 0 01-2.157-.036l-.562-.222-.527-.188-.551.246-.563.258a4.323 4.323 0 01-1.711.422l-.562.023-.563.012a6.787 6.787 0 01-1.441-.105l-1.125-.211a1.982 1.982 0 00-.645-.012l-1.125.164c-.417.06-.835.095-1.253.117l-.563.035-.562.024a5.496 5.496 0 01-1.547-.13l-.563-.14-.562-.129a2.836 2.836 0 00-.739-.07l-.562.023-.563.012c-.432.014-.868.001-1.3-.035l-1.125-.094c-.3-.025-.604-.02-.903 0l-1.125.07c-.441.03-.883.021-1.324-.011l-.562-.035-.563-.047a10.182 10.182 0 01-1.324-.188l-1.125-.234a1.604 1.604 0 00-.586-.012l-.563.094-.562.082a5.36 5.36 0 00-.879.223l-.563.187-.562.2a3.018 3.018 0 01-2.203-.094l-1.125-.493a8.565 8.565 0 00-.961-.351l-1.125-.328a1.128 1.128 0 00-.481-.047l-.562.082-.563.07a4.784 4.784 0 00-.855.211l-1.125.375a4.92 4.92 0 01-1.629.258h-.562l-.563-.012c-.344-.004-.687.008-1.031.024l-1.125.047a3.716 3.716 0 01-1.887-.434l-.562-.281-.563-.293c-.169-.088-.283-.109-.363-.106l-.563.024-.562.035a1.19 1.19 0 00-.504.14l-1.125.586a3.54 3.54 0 01-1.945.399l-1.125-.094a4.553 4.553 0 00-.844.012l-.563.047-.562.058a3.852 3.852 0 01-1.852-.28l-.562-.224-.563-.234c-.074-.03-.103-.022-.14-.012l-.563.153-.562.164a22.73 22.73 0 01-1.207.304l-.563.118-.562.129a4.562 4.562 0 01-1.676.058l-1.125-.164a3.28 3.28 0 00-.774-.023l-1.125.093c-.754.066-1.45-.15-2.05-.527l-.563-.352-.562-.34-.457.13-.563.175c-.432.13-.876.23-1.312.305l-1.125.188a7.625 7.625 0 01-1.395.105h-.562l-.563-.012a4.949 4.949 0 01-1.605-.304l-1.125-.399c-.25-.09-.49-.149-.715-.164l-1.125-.07a1.307 1.307 0 00-.528.082l-1.125.398a4.29 4.29 0 01-1.722.258l-1.125-.07c-.35-.022-.705-.043-1.055-.047h-.562l-.563-.012c-.336-.004-.672.003-1.008.024l-1.125.07a4.83 4.83 0 01-1.629-.188l-.562-.164-.563-.152a3.608 3.608 0 00-.796-.14l-.563-.036-.563-.023a1.478 1.478 0 00-.562.082l-1.125.375a4.046 4.046 0 01-1.781.187l-.563-.058-.562-.07a3 3 0 00-.75.011l-1.125.14c-.37.05-.743.101-1.114.153l-1.125.164c-.478.067-.96.081-1.441.047l-.563-.035-.562-.047a3.588 3.588 0 00-.797.035l-.562.082-.563.094a5.08 5.08 0 01-1.582-.012l-.562-.094-.563-.082a2.355 2.355 0 00-.691-.011l-.563.07-.562.082c-.344.047-.687.108-1.031.176l-1.125.21c-.534.105-1.08.13-1.618.06l-.562-.083-.563-.07a4.954 4.954 0 01-1.605-.516l-.563-.28-.504-.259-.48.2-.563.246a4.184 4.184 0 01-1.746.34l-.562-.024-.563-.012a5.438 5.438 0 01-1.558-.28l-.563-.177-.562-.187a1.582 1.582 0 00-.586-.082l-1.125.047c-.474.022-.947 0-1.418-.07l-.563-.083-.562-.093a2.165 2.165 0 00-.668.011l-.563.082-.562.094a4.274 4.274 0 01-1.723-.082l-.562-.14-.504-.118-.024.012-.562.351-.563.34c-.564.353-1.205.577-1.898.586l-1.125.024a5.209 5.209 0 01-1.582-.235l-.563-.164-.562-.176a3.258 3.258 0 00-.773-.14l-.563-.024-.563-.035a2.241 2.241 0 00-.667.07l-.563.141-.563.153c-.407.103-.82.183-1.23.257l-1.125.211a3.994 3.994 0 01-1.793-.093l-1.125-.305a12.256 12.256 0 00-1.008-.235l-1.125-.21a6.525 6.525 0 00-.914-.118L31.242 3.5c-.26-.01-.52.01-.785.06l-.563.105-.562.093c-.493.09-.99.126-1.488.094l-1.125-.07a1.043 1.043 0 00-.469.082l-.563.222-.562.235c-.928.375-1.845.169-2.566-.352l-1.125-.82c-.168-.12-.254-.128-.27-.129l-1.125-.023a.943.943 0 00-.434.117l-1.125.562a2.897 2.897 0 01-2.285.153L15.07 3.43l-.035.012-1.125.492a6.446 6.446 0 01-1.465.457l-.562.094-.563.105c-.861.151-1.647-.128-2.273-.586l-.563-.41-.48-.34-.363.13-.563.21c-.56.206-1.147.3-1.746.258l-.562-.047-.563-.035c-.27-.02-.733-.012-1.43.035l-1.078.07H1.5a1.5 1.5 0 110-3l1.078-.07C3.311.756 3.938.736 4.418.77l.562.047.563.035c.15.01.316-.001.504-.07L7.172.36l.691-.152a2.58 2.58 0 011.278.234l.562.328 1.125.82c.02.015.035.028.047.035l.492-.093.563-.094c.248-.044.512-.126.785-.246L13.84.7a2.977 2.977 0 012.215-.094l.562.2.54.187.55-.282.563-.28a3.913 3.913 0 011.816-.434L21.21.02z" fill="#A89484"/></svg>