<svg width="551" height="2" fill="none" xmlns="http://www.w3.org/2000/svg"><path d="M319.629.004h.187c.166.002.331.026.493.066l.375.094c.098.025.196.04.293.047l.375.031a.45.45 0 00.179-.023l.375-.125c.187-.062.382-.085.578-.067l.188.02.187.016c.116.01.232.018.348.023l.375.016c.218.008.422.077.606.183l.187.11.148.09.141-.067.188-.09a1.04 1.04 0 01.707-.07l.375.094a.174.174 0 00.101-.004l.188-.063.187-.058a1.04 1.04 0 01.719.03l.375.157c.031.013.047.012.062.008l.375-.094c.22-.055.444-.044.657.028l.187.066.188.062a.318.318 0 00.148.016l.188-.023.187-.028a.809.809 0 00.231-.07l.375-.172c.192-.09.401-.135.617-.121l.375.023c.115.008.233.012.347.012h.375c.194.001.38.044.559.117l.187.075.161.07.168-.094.187-.101a1.02 1.02 0 01.723-.102l.187.043.188.047c.142.033.285.073.426.12l.187.067.188.063a.73.73 0 00.222.043l.375.008c.093.002.187-.004.281-.02l.188-.031.187-.035c.197-.033.394-.02.586.03l.188.048.187.05a.165.165 0 00.098 0l.188-.062.187-.059c.202-.063.412-.073.621-.03l.188.034.187.04c.009.001.027.005.063-.012l.375-.18.203-.074a.885.885 0 01.414.008l.203.078.187.097.184.098.363-.121c.164-.055.334-.09.504-.102l.375-.023c.108-.007.216-.017.324-.035l.188-.031.187-.036c.169-.028.339-.033.508-.015l.375.039c.141.014.282.034.422.062l.375.078c.103.021.207.033.309.04l.375.023c.122.008.245.014.367.02l.187.011.188.008a.465.465 0 00.18-.031l.187-.067.188-.07c.213-.078.44-.093.664-.039l.187.047.188.043a.86.86 0 00.238.023l.375-.015c.097-.004.194-.015.293-.035l.375-.079c.14-.029.281-.05.422-.066l.375-.04c.191-.02.381-.005.566.048l.188.054.187.051c.151.043.302.1.449.168l.375.172a.215.215 0 00.114.024l.187-.016.188-.02a.342.342 0 00.148-.062l.375-.25c.163-.108.353-.175.555-.176l.207.024.187.043.188.039c.092.02.184.03.273.03l.375.009c.183.002.362.035.535.097l.375.133a.42.42 0 00.172.027l.188-.015.187-.012c.124-.009.248-.017.371-.027l.375-.031a.601.601 0 00.204-.055l.187-.086.188-.09.23-.066a.8.8 0 01.246 0 .865.865 0 01.231.07l.187.117.188.149.086.07.074-.05.187-.126a.962.962 0 01.582-.172l.215.035.188.055.187.059a.1.1 0 00.067-.004l.375-.133c.311-.11.608-.028.839.144l.188.137.129.102.105-.051.188-.09c.149-.072.303-.131.457-.176l.375-.109a.971.971 0 01.762.102l.187.109.168.098.344-.13c.193-.071.398-.1.605-.077l.188.023.187.02.367.039.188.02.187.015c.169.016.335.055.496.113l.188.066.187.07a.154.154 0 00.094.005l.375-.086a3.77 3.77 0 00.328-.094l.375-.125c.148-.05.299-.09.45-.117l.187-.031.188-.036c.179-.031.362-.033.543-.004l.375.063c.086.014.172.018.257.012l.188-.016.187-.012c.186-.013.372.007.551.059l.375.11c.093.026.185.043.274.05l.187.012.188.015a.364.364 0 00.156-.027l.375-.14a1.33 1.33 0 01.601-.086l.188.02.187.015c.155.014.309.044.461.086l.188.05.187.055c.015.004.028.003.055-.008l.188-.074.187-.078.215-.059a.91.91 0 01.609.141l.188.113.133.082.121-.062.187-.102a1.6 1.6 0 01.543-.18l.375-.046c.159-.021.321-.028.481-.016l.375.031c.188.015.37.062.543.14l.375.173a.537.537 0 00.195.05l.375.024a.202.202 0 00.109-.031l.375-.203a1.13 1.13 0 01.668-.141l.375.04c.19.02.371.08.543.167l.375.188a.172.172 0 00.098.023l.187-.023.188-.02a.904.904 0 00.242-.063l.188-.078.187-.074a.997.997 0 01.738-.012l.188.067.187.07a.472.472 0 00.18.035l.375-.015c.126-.005.253-.008.379-.012l.375-.016.375-.011.375-.008c.084-.003.173-.015.262-.04l.375-.1c.139-.038.278-.07.418-.095l.187-.03.188-.036c.25-.043.491.01.703.125l.187.102.188.105a.5.5 0 00.187.063l.375.039c.015.001.043 0 .09-.024l.375-.195c.172-.09.355-.15.547-.172l.187-.023.188-.02c.186-.021.373-.01.555.035l.187.047.188.05a.446.446 0 00.179.009l.188-.028.187-.03c.211-.033.419-.01.617.062l.188.07.187.066c.032.012.055.01.079.004l.187-.05.188-.047c.184-.05.373-.066.562-.043l.188.023.187.02c.106.012.211.019.317.02h.374c.07 0 .142-.011.219-.036l.188-.063.187-.058a1.25 1.25 0 01.625-.043l.375.07c.105.02.209.037.313.043l.375.024c.091.005.182 0 .273-.012l.375-.055c.258-.036.5.033.707.16l.188.114.187.117c.057.035.09.039.106.039l.187-.004h.188a.6.6 0 00.203-.043l.375-.14c.242-.093.498-.091.738.003l.188.074.187.07a.535.535 0 00.192.044h.374a.99.99 0 00.25-.035l.376-.094c.205-.053.414-.056.621-.004l.375.094c.017.004.034.005.066-.008l.188-.078.187-.074c.157-.064.317-.11.48-.137l.375-.063c.2-.033.4-.02.594.035l.188.055.187.05c.034.01.064.011.098 0l.375-.108c.17-.05.347-.077.523-.075l.188.004h.187c.224.003.434.07.621.18l.188.11.187.113.012.007.184-.043.187-.043a4.24 4.24 0 01.426-.078l.375-.047a2.65 2.65 0 00.316-.062l.375-.094c.169-.042.34-.064.512-.058l.375.015c.09.003.182-.004.274-.02l.187-.03.188-.036c.226-.038.449-.006.656.082l.187.082.184.078.375-.148.207-.055a.927.927 0 01.598.121l.187.106.121.074.129-.078.188-.11a.943.943 0 01.777-.1l.375.116c.103.032.204.055.305.07l.187.032.188.027.371.059.187.027.188.031a.748.748 0 00.226 0l.188-.03.187-.028c.11-.017.222-.04.332-.067l.188-.047.187-.042c.252-.062.498-.024.719.09l.188.097.187.094a.426.426 0 00.172.05l.187.012.188.008a.218.218 0 00.055-.031l.187-.137.188-.14.211-.118a.781.781 0 01.515-.015l.223.105.187.125.188.121a.206.206 0 00.051.028l.007.003.188-.015.187-.012a.427.427 0 00.172-.058l.188-.106.187-.101.203-.086a.858.858 0 01.426-.012l.211.074.188.094.168.086.16-.07.187-.083c.162-.07.329-.122.5-.148l.375-.055c.25-.037.487.016.696.133l.375.211a.274.274 0 00.132.043l.188.004h.187a.31.31 0 00.145-.04l.187-.097.188-.094a.98.98 0 01.566-.105l.196.043.375.125c.12.04.239.08.359.117l.188.055.187.058c.037.012.067.01.102 0l.187-.046.188-.051c.199-.053.403-.062.605-.02l.375.078.031-.011.188-.102.187-.105.188-.082a.919.919 0 01.398-.036l.203.051.375.14c.117.044.236.082.352.118l.187.059.172.05.375-.21.196-.083a.88.88 0 01.414-.023l.211.062.187.086.188.082a.31.31 0 00.144.032l.375-.024c.142-.008.284-.006.426 0l.375.016c.02 0 .054 0 .109-.031l.188-.106.187-.101c.199-.11.421-.171.657-.153l.375.032c.165.012.328.045.488.097l.187.059.184.062.012-.004.375-.18c.202-.095.424-.137.652-.109l.188.028.187.023a1.6 1.6 0 00.285.008l.188-.012.187-.008c.192-.01.381.017.563.078l.187.063.188.066c.122.042.248.082.371.121l.375.125a.177.177 0 00.101.004l.375-.093c.155-.038.312-.06.469-.067l.375-.015c.144-.007.29-.006.434.004l.187.015.188.012c.131.009.263.02.394.035l.188.02.187.023.012-.004c.007-.002.026-.004.051-.02l.375-.226.187-.09a.89.89 0 01.621.008l.375.14a.325.325 0 00.149.024l.375-.039c.115-.012.232-.024.347-.043l.375-.063c.139-.022.279-.037.418-.046l.188-.016.187-.012a6.27 6.27 0 01.411-.015h.374c.168 0 .333.021.497.062l.375.094c.102.026.204.044.304.055l.375.039c.096.01.193.01.289.004l.188-.016.187-.012c.21-.015.415.025.606.106l.187.078.18.078.184-.078.187-.078a1.63 1.63 0 01.539-.125l.188-.012.187-.008c.177-.01.355.007.527.05l.188.052.188.047c.014.003.029.004.058-.008l.375-.156c.198-.082.409-.116.625-.09l.375.047c.099.011.198.015.297.011l.375-.015c.173-.007.346.012.516.054l.375.094h.007c.003 0 .012 0 .028-.008l.187-.093.188-.09a1 1 0 01.554-.102l.192.043.375.117c.109.035.217.064.324.086l.375.078a.962.962 0 00.246.02l.188-.008.187-.012c.086-.004.176-.017.266-.043l.375-.109a2.47 2.47 0 01.469-.086l.375-.031c.196-.017.391.007.578.07l.375.125a.658.658 0 00.215.035h.374c.121 0 .243 0 .364-.004l.187-.004.188-.007.75-.016c.155-.004.31.007.465.031l.187.028.188.03c.137.023.277.05.414.083l.187.047.188.043h.004l.019-.012.375-.195c.179-.094.375-.155.578-.168l.375-.024c.184-.011.366.009.543.059l.375.11a.458.458 0 00.18.015l.375-.047c.151-.018.305-.022.457-.016l.375.016c.173.008.345.042.512.098l.375.125a.148.148 0 00.089.004l.188-.051.188-.047c.198-.052.4-.061.601-.02l.375.079c.107.022.214.04.32.05l.188.016.187.02.047-.024.188-.129.187-.125a.896.896 0 01.625-.156l.227.062.375.157a.374.374 0 00.16.035l.375-.016a.611.611 0 00.207-.047l.188-.078.187-.074c.172-.07.351-.11.535-.121l.375-.024c.201-.01.399.025.586.098l.188.074.187.07c.092.036.181.062.266.075l.375.054c.091.014.182.017.273.012l.188-.008.187-.011a2.28 2.28 0 01.481.027l.187.031.188.028c.012.002.033.004.074-.016l.187-.094.188-.09c.165-.081.34-.14.519-.168l.188-.027.187-.031a1.38 1.38 0 01.586.035l.188.05.187.055c.138.039.278.08.414.13l.188.07.168.062.375-.187c.176-.089.365-.146.562-.16l.188-.012.187-.016c.252-.018.482.06.68.188l.375.242a.215.215 0 00.059.027c.008.003.013 0 .015 0l.375-.023a.405.405 0 00.172-.051l.375-.203.219-.082a.83.83 0 01.445.015l.207.098.188.117.16.102.144-.059.188-.074c.204-.08.421-.107.641-.07l.375.062a.752.752 0 00.226.004l.188-.027.187-.024a1.15 1.15 0 00.262-.07l.187-.074.188-.07.195-.055a.963.963 0 01.578.09l.375.18a.186.186 0 00.102.023l.375-.04c.141-.014.284-.022.426-.023l.187-.004h.188c.171-.001.341.023.507.067l.188.047.187.05c.092.025.182.04.27.043l.375.016a.888.888 0 00.238-.023l.375-.086a4.18 4.18 0 01.426-.075L494.5.27c.159-.02.321-.022.48-.008l.375.031.372.031.187.016.188.012c.113.009.226.014.339.015l.188.004h.187a.354.354 0 00.157-.039l.187-.086.188-.09c.222-.105.468-.138.714-.074l.188.047.188.05c.091.024.181.037.269.04l.375.015a.928.928 0 00.242-.023l.375-.086a.998.998 0 01.746.125l.375.227.024.011.375-.07c.127-.025.255-.052.383-.074l.375-.063c.214-.037.426-.017.628.055l.188.066.148.055.172-.105.188-.114a.852.852 0 01.699-.09l.207.102.188.117.187.121c.057.037.088.04.102.04h.375c.003 0 .033-.002.093-.044l.188-.128.187-.133a.999.999 0 01.743-.18l.375.063c.1.016.201.026.3.027h.188l.187.004c.131.002.264.005.395.011l.187.012.188.008a.875.875 0 00.238-.02l.375-.085c.254-.058.5-.012.719.105l.187.098.188.101c.056.03.093.036.117.035l.188-.011.187-.008c.174-.008.346.01.516.05l.375.094c.087.022.174.031.258.032h.374a.83.83 0 00.235-.036l.375-.109c.107-.031.215-.068.324-.113l.375-.156.195-.059a.933.933 0 01.395.012l.191.066.375.18.008.004.188-.063.187-.058a.954.954 0 01.774.082l.375.21c.053.03.084.037.101.036l.375-.024a.417.417 0 00.172-.05l.375-.196a1.81 1.81 0 01.516-.18l.375-.07.215-.012c.206.013.394.094.55.211l.188.141.156.125.125-.047.188-.066c.127-.045.255-.086.382-.13l.188-.066.187-.062.219-.043a.935.935 0 01.59.16l.187.121.149.102.133-.055.187-.078a2.61 2.61 0 01.465-.148l.188-.043.187-.04a.97.97 0 01.766.168l.187.13.102.074.097-.063.188-.121.199-.098a.847.847 0 01.438-.03l.222.073.188.09.187.094a.28.28 0 00.137.031l.187-.008.188-.004a1.34 1.34 0 00.277-.039l.188-.046.187-.043c.202-.049.408-.05.61 0l.187.043.188.046a.148.148 0 00.09-.007l.375-.133a1 1 0 01.73.02l.187.074.188.078c.012.005.02.003.023.004.002 0 .008.002.016 0l.375-.118c.204-.062.419-.072.629-.027l.375.078h.008a.099.099 0 00.035-.012l.187-.093.188-.098c.191-.097.402-.148.621-.14l.188.003.187.008c.198.007.388.057.566.14l.188.087.187.09c.038.017.057.014.071.011l.375-.07a4.25 4.25 0 00.336-.078l.375-.102a1.68 1.68 0 01.535-.058l.187.011.188.008c.144.008.287.027.43.051l.375.062c.137.024.276.052.414.086l.375.094c.092.023.183.036.273.04l1.125.046c.088.004.176-.003.266-.02l.375-.07c.137-.025.275-.045.414-.058l.187-.016.188-.02c.14-.013.282-.022.422-.023l.187-.004h.188c.184-.001.367.03.543.09l.187.062.188.067c.059.02.111.024.16.02l.375-.04c.177-.018.356-.005.531.032l.375.078a.389.389 0 00.164 0l.375-.078c.157-.034.317-.054.477-.055h.187l.188-.004c.16-.001.322.014.48.047l.375.078c.005.001.017.004.047-.012l.187-.097.188-.094c.207-.105.437-.15.676-.113l.187.027.188.031a7 7 0 00.351.043l.375.04a.406.406 0 00.168-.024l.188-.059.187-.062a2.1 2.1 0 01.496-.098l.188-.016.187-.011c.146-.011.292-.013.438-.004l.187.012.188.007.379.024.375.023c.134.008.268.02.402.035l.375.047.258.031.062.008.118.016.015.012c.24.036.426.234.426.484a.5.5 0 01-.5.5h-.254l-.055-.039c-.043-.006-.106-.01-.187-.02l-.375-.046a5.83 5.83 0 00-.348-.032l-.187-.011-.188-.008c-.123-.008-.247-.017-.371-.024l-.375-.023a2.4 2.4 0 00-.312.004l-.188.015-.187.012a1.072 1.072 0 00-.254.05l-.375.126a1.408 1.408 0 01-.582.062l-.188-.02-.187-.015a7.96 7.96 0 01-.399-.05l-.187-.032-.188-.027c-.011-.002-.031-.002-.074.02l-.375.187a1.068 1.068 0 01-.703.102l-.375-.079a1.302 1.302 0 00-.27-.027l-.187.004h-.188c-.09 0-.181.011-.273.031l-.375.078a1.403 1.403 0 01-.586.004l-.187-.043-.188-.039a.706.706 0 00-.219-.012l-.375.04c-.2.02-.4-.006-.59-.07l-.187-.063-.188-.067a.616.616 0 00-.207-.035h-.187l-.188.004a3.684 3.684 0 00-.328.016l-.375.039a4.185 4.185 0 00-.336.047l-.375.07c-.16.03-.322.041-.484.035l-1.125-.047a2.365 2.365 0 01-.477-.07l-.375-.094a4.397 4.397 0 00-.336-.07l-.375-.063a2.796 2.796 0 00-.32-.035l-.187-.012-.188-.007a.674.674 0 00-.215.023l-.375.102a5.089 5.089 0 01-.414.097l-.375.07a1.108 1.108 0 01-.679-.09l-.188-.09-.187-.085a.474.474 0 00-.184-.047l-.188-.008-.187-.004a.255.255 0 00-.129.032l-.187.097-.188.094a1.06 1.06 0 01-.707.098l-.375-.078a.236.236 0 00-.121.007l-.188.059-.187.055a1.048 1.048 0 01-.711-.032l-.187-.078-.188-.074a.091.091 0 00-.012-.004h-.008l-.375.133a1.146 1.146 0 01-.66.04l-.187-.048-.188-.043a.287.287 0 00-.14 0l-.188.043-.187.047a2.424 2.424 0 01-.473.063l-.375.015a1.283 1.283 0 01-.613-.133l-.188-.09-.129-.062-.136.09-.188.117a.83.83 0 01-.469.137.851.851 0 01-.457-.156l-.187-.133-.188-.13a.101.101 0 00-.011-.007l-.161.04-.187.038a1.58 1.58 0 00-.285.09l-.188.082-.187.078a.878.878 0 01-.844-.086l-.187-.125-.172-.113-.145.05-.187.063c-.123.042-.245.086-.368.13l-.375.132c-.313.11-.612.025-.843-.149l-.391-.292-.156.03-.188.032a.837.837 0 00-.234.086l-.375.195a1.41 1.41 0 01-.578.164l-.188.012-.187.008a1.188 1.188 0 01-.649-.156l-.375-.211-.164.054-.187.059a.998.998 0 01-.742-.05l-.188-.087-.176-.086-.168.075-.187.074c-.141.058-.283.11-.426.152l-.375.11a1.844 1.844 0 01-.516.074h-.374c-.166 0-.331-.023-.493-.063l-.187-.043-.188-.047a.826.826 0 00-.234-.023l-.375.016c-.226.01-.44-.046-.633-.149l-.187-.101-.188-.098a.162.162 0 00-.027-.012h-.004l-.188.043-.187.04a1.88 1.88 0 01-.512.046l-.187-.012-.188-.007a9.393 9.393 0 00-.355-.012l-.188-.004h-.187a2.994 2.994 0 01-.45-.043l-.187-.031-.172-.032-.023.016-.188.133-.187.129c-.19.132-.41.22-.657.222h-.375a1.19 1.19 0 01-.648-.195l-.188-.121-.113-.074-.105.07-.188.113a.919.919 0 01-.804.09l-.375-.133a.23.23 0 00-.122-.011l-.187.03-.188.036c-.121.021-.245.043-.367.067l-.375.07a1.019 1.019 0 01-.726-.137l-.188-.11-.187-.113c-.008-.004-.012-.01-.016-.011l-.176.043-.187.043a1.948 1.948 0 01-.508.05l-.375-.015a2.25 2.25 0 01-.48-.07L498 1.098l-.188-.047h-.007c-.002 0-.011 0-.028.008l-.375.18a1.344 1.344 0 01-.593.132h-.188l-.187-.004a5.93 5.93 0 01-.411-.015l-.375-.032-.378-.03-.375-.032a1.315 1.315 0 00-.27.004l-.375.047a3.193 3.193 0 00-.324.058l-.375.086a1.912 1.912 0 01-.512.047l-.187-.008-.188-.011a2.274 2.274 0 01-.48-.075l-.188-.047-.187-.05a.922.922 0 00-.243-.032h-.187l-.188.004a3.21 3.21 0 00-.324.016l-.187.023-.188.02a1.19 1.19 0 01-.648-.117l-.188-.094-.179-.086-.172.066-.188.075a2.177 2.177 0 01-.488.125l-.375.054a1.77 1.77 0 01-.524-.007l-.375-.063a.197.197 0 00-.109.016l-.187.07-.188.074a.899.899 0 01-.82-.082l-.188-.117-.133-.082-.121.066-.187.102a1.41 1.41 0 01-.578.172l-.375.023c-.25.016-.479-.06-.676-.187l-.375-.242a.218.218 0 00-.055-.028c-.008-.002-.013 0-.015 0l-.188.012-.187.016a.5.5 0 00-.188.054l-.375.188a.96.96 0 01-.769.05l-.188-.07-.187-.066a4.925 4.925 0 00-.336-.11l-.375-.101a.385.385 0 00-.164-.012l-.188.027-.187.032a.816.816 0 00-.235.074l-.375.187a1.11 1.11 0 01-.672.106l-.187-.031-.188-.028c-.09-.014-.18-.02-.269-.015l-.188.008-.187.011a2.38 2.38 0 01-.477-.023l-.375-.055a2.222 2.222 0 01-.484-.129l-.375-.148a.384.384 0 00-.164-.028l-.188.008-.187.012a.672.672 0 00-.215.05l-.188.079-.187.074c-.174.07-.356.114-.543.121l-.187.008-.188.004a1.373 1.373 0 01-.59-.11l-.187-.078-.125-.054-.149.101-.187.13a1.066 1.066 0 01-.703.19l-.188-.019-.187-.016a4.084 4.084 0 01-.43-.066l-.375-.078a.319.319 0 00-.148.004l-.188.05-.188.047c-.22.058-.445.053-.66-.02l-.187-.062-.188-.066a.87.87 0 00-.238-.043l-.375-.016a1.838 1.838 0 00-.293.008l-.375.047a1.452 1.452 0 01-.57-.047l-.188-.054-.187-.051a.61.61 0 00-.207-.024l-.375.024a.422.422 0 00-.172.05l-.188.102-.187.098a1.034 1.034 0 01-.727.097l-.187-.043-.188-.046a4.604 4.604 0 00-.336-.067l-.187-.031-.188-.027a1.574 1.574 0 00-.285-.02l-.937.02-.188.007c-.128.004-.258.004-.387.004h-.374c-.183 0-.362-.027-.536-.086l-.375-.125a.416.416 0 00-.172-.023l-.375.031a1.487 1.487 0 00-.281.05l-.375.11a2.17 2.17 0 01-.484.082l-.188.008-.187.012a1.974 1.974 0 01-.504-.04l-.375-.077a4.402 4.402 0 01-.426-.114l-.187-.058-.184-.059-.008.004-.187.09-.188.094a1.04 1.04 0 01-.715.078l-.375-.094a.83.83 0 00-.234-.023l-.375.015a2.889 2.889 0 01-.453-.02l-.188-.023-.187-.02a.24.24 0 00-.125.02l-.375.157c-.22.09-.457.11-.691.05L453 1.316l-.188-.05a.74.74 0 00-.222-.024l-.375.024a.639.639 0 00-.211.05l-.188.075-.187.078a.972.972 0 01-.762 0l-.187-.078-.188-.082a.312.312 0 00-.144-.028l-.188.016-.187.012c-.154.01-.308.008-.461-.008l-.375-.04a3.2 3.2 0 01-.446-.077l-.375-.094a1.022 1.022 0 00-.254-.031h-.374c-.114 0-.227.008-.34.015l-.375.024a3.63 3.63 0 00-.332.039l-.188.027-.187.031a6.84 6.84 0 01-.403.055l-.375.04a1.314 1.314 0 01-.601-.083l-.188-.074-.148-.059-.168.106-.188.113a1.085 1.085 0 01-.687.16l-.188-.02-.187-.023a8.299 8.299 0 00-.356-.031l-.375-.023a2.875 2.875 0 00-.316-.004l-.375.015a1.456 1.456 0 00-.281.04l-.375.093a1.18 1.18 0 01-.649-.027l-.187-.063-.188-.058c-.126-.042-.252-.086-.379-.13l-.187-.062-.188-.066a.488.488 0 00-.187-.028l-.375.024a2.57 2.57 0 01-.465-.016l-.188-.027-.187-.023c-.021-.003-.05 0-.098.023l-.187.086-.188.09a.994.994 0 01-.742.05l-.187-.058-.188-.063a1.132 1.132 0 00-.262-.05l-.375-.032c-.014 0-.042 0-.093.028l-.375.21a1.197 1.197 0 01-.641.157l-.187-.008-.188-.012a3.124 3.124 0 00-.324.004l-.188.012-.187.008a1.312 1.312 0 01-.606-.113l-.187-.083-.149-.066-.156.09-.187.102a.966.966 0 01-.766.09l-.187-.06-.188-.054a7.447 7.447 0 01-.398-.137l-.188-.07-.164-.059-.172.098-.187.102c-.217.119-.463.17-.719.117l-.375-.078a.309.309 0 00-.145.004l-.375.101a1.174 1.174 0 01-.648-.012l-.188-.058-.187-.055c-.13-.04-.261-.08-.391-.125l-.363-.12-.187.093-.188.098c-.187.095-.391.15-.605.148h-.188l-.187-.004a1.27 1.27 0 01-.618-.168l-.375-.21c-.041-.024-.054-.02-.054-.02l-.375.054a.995.995 0 00-.25.075l-.375.164a.918.918 0 01-.797-.024l-.328-.164-.145.082-.187.106a1.42 1.42 0 01-.578.18l-.188.011-.187.016a1.098 1.098 0 01-.692-.192l-.187-.125-.086-.058-.09.07-.188.14c-.194.144-.43.24-.695.227l-.187-.008-.188-.011a1.417 1.417 0 01-.578-.16l-.188-.098-.187-.094-.027-.012h-.004l-.375.094c-.139.034-.279.06-.418.082l-.188.027-.187.032a1.77 1.77 0 01-.524 0l-.187-.028-.188-.03-.379-.06-.187-.027-.188-.031a3.17 3.17 0 01-.445-.106l-.187-.058-.165-.051-.183.11-.188.113a.848.848 0 01-.875.008l-.187-.11-.168-.094-.152.059-.188.074a.976.976 0 01-.754-.008l-.187-.082-.188-.078a.163.163 0 00-.094-.015l-.375.062a2.362 2.362 0 01-.476.031l-.188-.004-.187-.007a.852.852 0 00-.238.027l-.375.094a3.668 3.668 0 01-.434.086l-.375.047a3.173 3.173 0 00-.324.058l-.375.086a.997.997 0 01-.742-.121l-.375-.219a.269.269 0 00-.129-.043h-.188l-.187-.004a.772.772 0 00-.227.032l-.187.058-.188.055a1.157 1.157 0 01-.652 0l-.188-.05-.187-.056a.352.352 0 00-.156-.011l-.375.062c-.087.014-.177.04-.27.078l-.188.078-.187.075a1.091 1.091 0 01-.684.05l-.375-.093a.248.248 0 00-.128 0l-.188.05-.188.047a1.976 1.976 0 01-.5.067h-.374c-.192 0-.38-.04-.559-.11l-.375-.148-.008-.004-.004.004-.375.14c-.175.067-.36.107-.547.11h-.187l-.188.004a1.195 1.195 0 01-.644-.188l-.188-.113-.187-.117-.043-.02-.188.028-.187.023a2.38 2.38 0 01-.477.02l-.375-.024a3.487 3.487 0 01-.437-.054l-.375-.07a.241.241 0 00-.125.007l-.188.063-.187.058a1.715 1.715 0 01-.532.086h-.374a3.7 3.7 0 01-.434-.023l-.375-.047a.502.502 0 00-.188.015l-.375.102c-.225.06-.454.047-.671-.031l-.188-.067-.187-.07a.268.268 0 00-.133-.016l-.188.032-.187.027c-.192.029-.383.02-.571-.027l-.375-.094a.545.545 0 00-.195-.016l-.187.024-.188.02a.585.585 0 00-.203.066l-.375.195a1.148 1.148 0 01-.66.133l-.375-.04a1.511 1.511 0 01-.563-.183l-.375-.203a.135.135 0 00-.039-.016h-.008l-.375.063a3.769 3.769 0 00-.332.074l-.375.102c-.16.043-.323.069-.488.074l-.375.008-.375.011-.187.008-.188.004c-.124.004-.247.011-.371.016l-.187.008-.188.003a1.465 1.465 0 01-.57-.093l-.375-.141-.012.004-.188.074-.187.078a1.893 1.893 0 01-.508.133l-.375.04a1.168 1.168 0 01-.652-.122l-.188-.098-.187-.093a.608.608 0 00-.207-.063l-.188-.02-.187-.023c-.011-.001-.036.002-.082.028l-.375.203a1.196 1.196 0 01-.641.148l-.187-.008-.188-.011a1.55 1.55 0 01-.555-.141l-.375-.172a.6.6 0 00-.207-.055l-.187-.015-.188-.012a1.322 1.322 0 00-.269.008l-.375.047a.607.607 0 00-.207.07l-.188.102-.187.097a.85.85 0 01-.871-.031l-.188-.117-.16-.102-.141.059-.187.074c-.222.09-.46.108-.695.043l-.375-.102a1.718 1.718 0 00-.289-.054l-.188-.016-.187-.02a.328.328 0 00-.149.024l-.187.07-.188.075c-.189.071-.39.1-.594.086l-.187-.012-.188-.016c-.16-.012-.32-.04-.476-.086l-.375-.11a.567.567 0 00-.199-.023l-.188.016-.187.012a2.13 2.13 0 01-.493-.024l-.187-.027-.188-.031a.619.619 0 00-.207 0l-.187.035-.188.031a2.068 2.068 0 00-.3.078l-.188.063-.187.066c-.14.047-.281.085-.422.117l-.188.047-.187.043a1.148 1.148 0 01-.656-.043l-.375-.133a1.06 1.06 0 00-.254-.058l-.188-.02-.187-.015c-.128-.013-.256-.03-.383-.043l-.375-.04a.31.31 0 00-.145.02l-.375.14a.93.93 0 01-.801-.073l-.187-.106-.187-.11-.008-.003-.168.05-.188.055a1.876 1.876 0 00-.293.114l-.375.18a.836.836 0 01-.472.081.892.892 0 01-.418-.18l-.188-.136-.164-.125-.121.047-.188.066a1.092 1.092 0 01-.683.02l-.188-.055-.148-.047-.18.121-.187.13a.806.806 0 01-.496.14.83.83 0 01-.469-.184l-.188-.144-.136-.11-.094.047-.188.086c-.173.08-.357.13-.546.145l-.375.03c-.127.011-.253.02-.379.028l-.188.016-.187.012a1.412 1.412 0 01-.578-.082l-.375-.133a.666.666 0 00-.215-.04l-.375-.007c-.16-.002-.32-.02-.477-.055l-.187-.039-.168-.039-.008.008-.188.125-.187.12c-.18.12-.382.201-.602.224l-.375.039a1.22 1.22 0 01-.636-.11l-.375-.172a2.146 2.146 0 00-.301-.113l-.375-.11a.471.471 0 00-.184-.015l-.187.02-.188.023a3.546 3.546 0 00-.328.05l-.375.079a2.821 2.821 0 01-.457.055l-.375.015a1.87 1.87 0 01-.512-.05l-.187-.043-.188-.047a.14.14 0 00-.086.008l-.187.066-.188.07a1.467 1.467 0 01-.57.09l-.187-.012-.188-.007a24.549 24.549 0 01-.383-.02l-.187-.012-.188-.015a3.366 3.366 0 01-.441-.055l-.375-.078a3.517 3.517 0 00-.328-.047l-.375-.04a.9.9 0 00-.242.009l-.375.062a4.127 4.127 0 01-.426.051l-.375.023a.955.955 0 00-.246.047l-.375.125a.973.973 0 01-.766-.062l-.187-.098-.157-.078-.148.074-.188.09a1.08 1.08 0 01-.687.09l-.375-.078a.254.254 0 00-.129.008l-.188.062-.187.059a1.16 1.16 0 01-.652.015l-.375-.101a.38.38 0 00-.164-.008l-.375.062a2.51 2.51 0 01-.469.036l-.375-.008a1.74 1.74 0 01-.528-.098l-.187-.062-.188-.067a3.24 3.24 0 00-.324-.093l-.187-.043-.188-.047-.008.004-.019.007-.188.102-.187.098a.919.919 0 01-.797.046l-.187-.078-.188-.074a.515.515 0 00-.188-.043h-.374a6.75 6.75 0 01-.407-.015l-.375-.024a.277.277 0 00-.133.031l-.375.172c-.166.077-.34.132-.519.156l-.188.024-.187.027a1.325 1.325 0 01-.602-.062l-.375-.125a.153.153 0 00-.093-.004l-.375.094a1.09 1.09 0 01-.688-.055l-.375-.156-.019-.008-.012.004-.188.058-.187.063a1.173 1.173 0 01-.649.02l-.375-.094-.011-.004a.15.15 0 00-.032.011l-.187.086-.188.09a.88.88 0 01-.836-.043l-.187-.105-.187-.11a.328.328 0 00-.145-.05l-.375-.016a7.393 7.393 0 01-.402-.027l-.188-.016-.187-.02a.418.418 0 00-.172.024l-.188.059-.187.062a1.45 1.45 0 01-.571.07l-.375-.03a2.818 2.818 0 01-.457-.075l-.375-.094a1.108 1.108 0 00-.257-.035h-.188L319.434 1a.212.212 0 00-.11.04l-.187.116-.188.114a.941.941 0 01-.789.105l-.375-.117a1.315 1.315 0 00-.269-.055l-.188-.02-.187-.015-.379-.039-.375-.04a.926.926 0 00-.242.009l-.375.062a1.756 1.756 0 01-.528.004l-.187-.023-.188-.028a.666.666 0 00-.215.004l-.375.07a1.34 1.34 0 01-.597-.027l-.375-.101a.241.241 0 00-.125-.004l-.188.047-.187.043a9.33 9.33 0 00-.356.093l-.187.055-.188.05a1.66 1.66 0 01-.539.063l-.187-.007-.188-.012a1.291 1.291 0 00-.269.015l-.188.028-.187.031a1.047 1.047 0 01-.711-.148l-.188-.114-.144-.086-.133.063-.188.09a.998.998 0 01-.738.058l-.375-.117a3.717 3.717 0 00-.332-.086l-.375-.078a.578.578 0 00-.199-.008l-.188.024-.187.027c-.09.012-.183.037-.278.07l-.187.063-.188.066c-.21.074-.432.093-.652.043l-.375-.086a1.09 1.09 0 00-.258-.027l-.375.008a3.455 3.455 0 00-.328.02l-.187.019-.188.023a1.43 1.43 0 00-.277.059l-.188.058-.187.063a1.032 1.032 0 01-.723-.035l-.375-.156a1.441 1.441 0 00-.277-.086l-.188-.04-.187-.035a.159.159 0 00-.094.012l-.375.149a.996.996 0 01-.738.003l-.375-.14a.112.112 0 00-.074-.008l-.375.094c-.14.035-.282.064-.422.086l-.188.027-.187.031c-.12.019-.24.037-.36.059l-.187.035-.188.031a1.502 1.502 0 01-.562-.004l-.188-.035-.187-.039a1.696 1.696 0 00-.289-.031l-.375-.008a1.799 1.799 0 00-.293.02l-.188.023-.937.137a2.203 2.203 0 01-.485.015l-.187-.015-.188-.012a1.836 1.836 0 01-.515-.121l-.375-.14-.008-.005-.008.004-.187.07-.188.075a.904.904 0 01-.816-.086l-.188-.113-.187-.118c-.014-.008-.024-.01-.028-.011l-.179.035-.188.035a1.404 1.404 0 01-.578-.008l-.375-.086a.902.902 0 00-.242-.023l-.188.012-.187.007a6.895 6.895 0 00-.348.028l-.375.039c-.12.012-.243.023-.363.039l-.187.027-.188.024a1.441 1.441 0 01-.57-.043l-.188-.051-.18-.05-.007.007-.188.101-.187.106a1.323 1.323 0 01-.602.172l-.187.008-.188.004a2.024 2.024 0 01-.5-.047l-.187-.04-.188-.042a3.544 3.544 0 00-.328-.055l-.375-.047a.512.512 0 00-.191.012l-.375.094a1.08 1.08 0 01-.696-.063l-.187-.078-.188-.082-.004-.004-.004.004-.375.133a2.42 2.42 0 01-.468.12l-.188.028-.187.031a6.18 6.18 0 01-.407.047l-.375.032a3.033 3.033 0 01-.449.003l-.375-.023a3.46 3.46 0 01-.441-.055l-.188-.039-.187-.035a2.794 2.794 0 00-.317-.043l-.375-.031a5.823 5.823 0 01-.41-.047l-.187-.027-.188-.032a.942.942 0 00-.246-.004l-.187.02-.188.023c-.089.01-.18.028-.273.059l-.375.125a.915.915 0 01-.809-.121l-.293-.195-.097.062-.188.121a1.06 1.06 0 01-.707.168l-.375-.047a1.086 1.086 0 00-.258 0l-.187.02-.188.023a1.254 1.254 0 01-.621-.093l-.187-.075-.188-.078-.019-.008a.094.094 0 00-.016.004l-.375.117c-.17.053-.343.082-.52.083h-.375c-.198 0-.392-.04-.574-.118l-.187-.078-.133-.058-.152.097-.188.121a.866.866 0 01-.855.063l-.188-.086-.187-.09a.277.277 0 00-.133-.031l-.375.023a1.916 1.916 0 00-.297.043l-.188.043-.187.04a2.05 2.05 0 01-.496.05l-.375-.008a1.647 1.647 0 00-.289.016l-.188.027-.187.031c-.186.028-.372.02-.555-.02l-.187-.038-.188-.043a3.124 3.124 0 01-.445-.133l-.375-.14c-.013-.006-.022-.004-.024-.004a.067.067 0 00-.015.003l-.375.125a1.07 1.07 0 01-.7-.007l-.187-.063-.188-.066h-.007l-.188.086-.187.082a1.83 1.83 0 01-.52.144l-.187.02-.188.023c-.2.024-.399.004-.59-.058l-.375-.125a2.13 2.13 0 00-.304-.079l-.188-.03-.187-.036a3.796 3.796 0 00-.332-.039l-.375-.031a9.677 9.677 0 00-.356-.024l-.375-.015c-.007 0-.034-.002-.086.03l-.187.118-.188.121a1.01 1.01 0 01-.734.149l-.375-.07a3.216 3.216 0 00-.324-.044l-.375-.03a2.753 2.753 0 01-.457-.079l-.188-.05-.188-.048a1.352 1.352 0 00-.273-.043l-.187-.007-.188-.012a7.933 7.933 0 00-.355-.008h-.188l-.187-.004a.72.72 0 00-.219.04l-.375.116a3.505 3.505 0 01-.438.11l-.187.035-.188.031c-.17.03-.343.037-.515.02l-.188-.016-.187-.02a.433.433 0 00-.176.02l-.375.117c-.31.097-.6.006-.824-.164l-.188-.14-.187-.145a.178.178 0 00-.032-.02l-.171.02-.188.023c-.15.018-.302.022-.453.016l-.375-.016a.22.22 0 00-.113.036l-.188.101-.187.106a1.347 1.347 0 01-.594.175l-.375.016a1.183 1.183 0 01-.649-.164l-.374-.219c-.022-.012-.035-.014-.04-.015h-.007l-.188.03-.187.028a2.912 2.912 0 01-.454.04h-.374a.507.507 0 00-.188.038l-.188.078-.187.075a.918.918 0 01-.805-.055l-.187-.105-.18-.098-.344.129a1.69 1.69 0 01-.535.105l-.375.008a2.757 2.757 0 01-.457-.023l-.375-.055a2.47 2.47 0 01-.469-.113l-.375-.133a.165.165 0 00-.097-.008l-.188.043-.187.047a1.9 1.9 0 01-.508.047l-.188-.008-.187-.004a.275.275 0 00-.137.031l-.187.094-.188.09a1.021 1.021 0 01-.722.074l-.375-.101a.32.32 0 00-.149-.004l-.187.035-.188.039c-.198.04-.398.037-.594-.012l-.375-.094a.691.691 0 00-.218-.02l-.188.013-.187.015a1.4 1.4 0 01-.578-.086l-.375-.133a.765.765 0 00-.227-.046l-.188-.008-.187-.004c-.098-.004-.195 0-.293.012l-.375.046a2.33 2.33 0 00-.309.059l-.375.102a1.271 1.271 0 01-.617.011l-.375-.086a.244.244 0 00-.125.004l-.187.051-.188.055a1.07 1.07 0 01-.695-.04l-.375-.148a.581.581 0 00-.203-.043l-.375-.008a.586.586 0 00-.203.032l-.188.062-.187.067a1.073 1.073 0 01-.696-.004l-.375-.125a.203.203 0 00-.113-.008l-.187.035-.188.04c-.149.03-.299.05-.449.058l-.375.023a.71.71 0 00-.223.047l-.375.148a1.23 1.23 0 01-.625.075l-.375-.055a5.534 5.534 0 00-.344-.035l-.375-.031a1.746 1.746 0 01-.527-.125l-.187-.079-.18-.078-.18.082-.187.082c-.226.099-.469.12-.711.051l-.188-.054-.187-.051a.32.32 0 00-.149-.008l-.375.07a1.13 1.13 0 01-.668-.086l-.187-.082-.184-.082-.176.074-.187.075a3.252 3.252 0 01-.445.144l-.188.047-.187.043a1.213 1.213 0 01-.637-.016l-.188-.058-.187-.055a.16.16 0 00-.094 0l-.187.05-.188.056a3.13 3.13 0 01-.449.09l-.187.027-.188.023a1.218 1.218 0 01-.633-.09l-.187-.082-.188-.078c-.011-.005-.018-.004-.019-.004h-.012l-.375.118c-.22.068-.447.07-.668.003l-.188-.058-.187-.055a1.755 1.755 0 00-.293-.062l-.375-.047a.44.44 0 00-.176.015l-.187.055-.188.05a1.03 1.03 0 01-.711-.05l-.187-.082-.168-.074-.168.082-.188.09a1.38 1.38 0 01-.586.144h-.187l-.188.004a1.342 1.342 0 01-.593-.137l-.375-.18c-.038-.017-.056-.013-.067-.011l-.375.07a3.106 3.106 0 01-.445.055l-.375.016a1.42 1.42 0 00-.277.043l-.375.093c-.187.047-.38.056-.571.028l-.375-.055a2.715 2.715 0 01-.457-.11l-.187-.062-.149-.05-.172.113-.187.125a1.05 1.05 0 01-.707.175l-.188-.023-.187-.02a1.28 1.28 0 00-.27-.003l-.187.015-.188.02a1.677 1.677 0 01-.535-.04l-.375-.085a2.587 2.587 0 01-.469-.16l-.187-.086-.172-.079-.172.079-.187.082a3.108 3.108 0 01-.446.156l-.187.05-.188.048c-.242.064-.484.04-.707-.06l-.187-.081-.188-.086a.279.279 0 00-.136-.027l-.188.011-.187.016c-.1.007-.2.02-.301.043l-.188.043-.187.039a1.073 1.073 0 01-.695-.078l-.188-.09-.187-.086a.159.159 0 00-.09-.02l-.188.028-.187.031a1.678 1.678 0 01-.535-.008l-.188-.035-.187-.031a.38.38 0 00-.164.008l-.376.093a1.51 1.51 0 01-.558.04l-.188-.02-.187-.023a.239.239 0 00-.125.02l-.375.155a1.86 1.86 0 01-.512.133l-.187.024-.188.02c-.14.015-.281.024-.422.026l-.375.008a1.26 1.26 0 01-.617-.156l-.187-.102-.188-.097a.18.18 0 00-.101-.028l-.188.012-.187.016a1.692 1.692 0 00-.289.05l-.188.047-.188.051a3.787 3.787 0 01-.429.086l-.188.024-.187.027a1.413 1.413 0 01-.582-.04l-.188-.054-.187-.05a.923.923 0 00-.242-.04h-.375a3.14 3.14 0 01-.446-.035l-.187-.027-.188-.031a.51.51 0 00-.191.007l-.375.086a1.093 1.093 0 01-.688-.074l-.375-.164c-.007-.003-.013-.003-.015-.004l-.004-.004-.004.004-.188.055-.187.058a2.53 2.53 0 01-.469.098l-.375.04a4.196 4.196 0 01-.426.027h-.375a1.367 1.367 0 01-.593-.133l-.188-.09-.148-.07-.149.086-.187.101a.924.924 0 01-.793.055l-.188-.07-.187-.075a.186.186 0 00-.106-.011l-.187.035-.188.03a7.178 7.178 0 01-.402.063l-.375.047a4.43 4.43 0 00-.336.055l-.375.078c-.153.031-.31.047-.465.05l-.187.005-.188.008-.75.015a1.436 1.436 0 01-.574-.105L176 1.28a2.222 2.222 0 00-.305-.097l-.187-.047-.168-.043c-.003.001-.004.005-.008.008l-.187.117-.188.12a.951.951 0 01-.785.122l-.375-.11a1.295 1.295 0 00-.27-.046l-.187-.016-.188-.012a2.893 2.893 0 00-.32-.003l-.375.015a1.177 1.177 0 00-.262.04l-.187.054-.188.05a.993.993 0 01-.742-.09l-.187-.097-.184-.097-.168.058-.187.067a1.833 1.833 0 01-.52.101l-.375.016a1.535 1.535 0 01-.555-.082l-.187-.067-.188-.062a.173.173 0 00-.101-.004l-.375.086c-.212.05-.426.042-.633-.02l-.188-.054-.156-.047-.176.12-.187.122a.983.983 0 01-.754.152l-.187-.043-.188-.039a2.087 2.087 0 01-.492-.176l-.305-.152-.129.09-.187.129c-.207.14-.456.218-.727.18l-.375-.055a.724.724 0 00-.222.004l-.375.062a1.16 1.16 0 01-.657-.086l-.375-.164c-.026-.011-.034-.006-.043-.004l-.375.102a1.895 1.895 0 01-.511.07l-.188-.004h-.187a3.35 3.35 0 00-.325.016l-.187.016-.188.02a1.28 1.28 0 01-.613-.095l-.375-.156c-.026-.01-.038-.011-.051-.008l-.187.055-.188.05a1.01 1.01 0 01-.726-.073l-.188-.09-.136-.07-.141.085-.188.11a1.177 1.177 0 01-.652.168l-.375-.016a1.514 1.514 0 01-.559-.14l-.187-.087-.188-.082-.023-.007h-.008l-.375.109c-.137.04-.276.074-.414.102l-.187.035-.188.039a1.006 1.006 0 01-.734-.14l-.188-.114-.187-.117c-.015-.01-.024-.011-.028-.012l-.179.035-.188.035a1.76 1.76 0 01-.519.024l-.375-.04a1.538 1.538 0 00-.285-.003l-.375.031a.854.854 0 00-.235.055l-.187.07-.188.074a.958.958 0 01-.773-.035l-.188-.09-.117-.058-.137.093-.187.125a1.136 1.136 0 01-.672.2l-.188-.008-.187-.004a1.343 1.343 0 01-.598-.172l-.187-.105-.16-.086-.149.066-.187.082a1.008 1.008 0 01-.731.035l-.375-.125a.718.718 0 00-.222-.035l-.188-.004h-.187a5.542 5.542 0 01-.414-.02l-.375-.03a2.575 2.575 0 00-.313-.008l-.187.007-.188.004a1.716 1.716 0 00-.289.04l-.375.077a6.505 6.505 0 00-.348.086l-.375.102a1.271 1.271 0 01-.621.012l-.375-.086a2.377 2.377 0 01-.472-.164l-.188-.086-.16-.075-.156.083-.188.09a1.24 1.24 0 01-.633.132l-.187-.012-.188-.015a2.398 2.398 0 00-.308 0l-.375.023a1.488 1.488 0 00-.281.047l-.376.094a.944.944 0 01-.789-.156l-.375-.266a.277.277 0 00-.062-.035.064.064 0 00-.016-.004l-.187.004h-.188a.929.929 0 00-.242.039l-.375.11a1.382 1.382 0 01-.59.038l-.187-.027-.188-.031a.29.29 0 00-.14.015l-.188.063-.187.066a4.667 4.667 0 01-.418.121l-.188.043-.187.047a1.32 1.32 0 01-.606 0l-.375-.086a3.034 3.034 0 01-.449-.14L131 1.16a.191.191 0 00-.105-.015l-.375.062c-.181.03-.363.028-.543-.004l-.188-.035-.187-.031a.155.155 0 00-.032.015l-.375.227a.857.857 0 01-.894-.004l-.375-.226-.156.05-.188.055c-.163.05-.328.078-.496.086l-.188.012-.187.007a1.5 1.5 0 00-.281.04l-.188.042-.187.047c-.19.046-.386.053-.578.02l-.188-.031-.187-.036a41.229 41.229 0 01-.379-.066l-.188-.031-.187-.035a.528.528 0 00-.192 0l-.187.035-.188.039c-.156.03-.314.044-.472.043l-.188-.004h-.187c-.099 0-.198.004-.297.02l-.188.03-.187.028c-.163.025-.328.03-.492.016l-.375-.032a1.887 1.887 0 01-.508-.117l-.375-.14-.375.164a1.784 1.784 0 01-.524.14l-.375.04a1.067 1.067 0 01-.699-.18l-.187-.125-.188-.121a.412.412 0 00-.168-.07l-.187-.024-.184-.027a.178.178 0 00-.035.019l-.375.25a.923.923 0 01-.801.125l-.375-.117a23.11 23.11 0 01-.387-.125l-.375-.125a.132.132 0 00-.082-.004l-.187.055-.188.05a1.769 1.769 0 01-.523.063l-.188-.004-.187-.008a1.294 1.294 0 00-.27.024l-.187.03-.188.036c-.169.031-.34.04-.511.023l-.188-.02-.187-.015a.363.363 0 00-.161.02l-.187.07-.188.067a1.31 1.31 0 01-.605.07l-.375-.047a.734.734 0 00-.223.008l-.375.07a1.01 1.01 0 01-.73-.152l-.188-.121-.187-.117a.19.19 0 00-.051-.024h-.008l-.375.04a1.34 1.34 0 00-.277.054l-.375.117a1.018 1.018 0 01-.727-.047l-.187-.082-.145-.066-.156.09-.187.101a1.023 1.023 0 01-.731.117l-.187-.043-.188-.039a5.054 5.054 0 01-.414-.113l-.375-.117a.687.687 0 00-.219-.031h-.187l-.188.003a.45.45 0 00-.175.047l-.188.082-.187.086a.98.98 0 01-.754.035l-.188-.07-.187-.066a1.019 1.019 0 00-.25-.059l-.188-.015-.187-.02a.371.371 0 00-.161.023l-.187.067-.188.07c-.197.07-.403.092-.613.063l-.187-.024-.188-.027a.203.203 0 00-.113.015l-.375.157c-.194.08-.401.114-.613.093l-.188-.015-.187-.02a1.509 1.509 0 01-.563-.172l-.187-.101-.18-.094-.164.063-.188.066a2.64 2.64 0 01-.465.125l-.375.063a1.09 1.09 0 01-.683-.11l-.188-.094-.187-.097c-.037-.02-.054-.017-.063-.016l-.375.063c-.14.024-.284.044-.425.054l-.188.012-.187.016c-.128.01-.256.016-.383.023l-.188.012-.187.008a1.52 1.52 0 01-.559-.075l-.187-.062-.188-.059a.114.114 0 00-.074-.004l-.188.059-.187.055a1.08 1.08 0 01-.691-.024l-.375-.14a.365.365 0 00-.16-.024l-.188.02-.188.015c-.16.015-.32.012-.48-.007l-.375-.047c-.005-.001-.022-.003-.063.02l-.187.109-.188.105a.927.927 0 01-.8.07l-.375-.14a.619.619 0 00-.207-.04l-.375-.007a2.226 2.226 0 00-.305.015L87 1.238c-.127.016-.256.03-.383.043l-.375.04a1.796 1.796 0 01-.523-.02l-.375-.07c-.01-.002-.026-.007-.063.011l-.187.094-.188.09a1.072 1.072 0 01-.695.094l-.375-.079a4.432 4.432 0 01-.422-.109l-.187-.058-.18-.06-.004.009-.375.195a.851.851 0 01-.871-.039l-.188-.117-.187-.121c-.023-.015-.037-.015-.04-.016l-.183.027-.187.028a1.34 1.34 0 00-.274.07l-.375.14a1.884 1.884 0 01-.511.118l-.375.031c-.176.014-.351 0-.524-.039l-.375-.086a.607.607 0 00-.207-.012l-.375.047a1.671 1.671 0 01-.535-.023l-.188-.04-.187-.034a2.767 2.767 0 01-.457-.137l-.188-.074-.156-.063-.164.094-.187.11a1.523 1.523 0 01-.559.187L75 1.516c-.19.024-.378.012-.563-.035l-.187-.047-.188-.051a1.581 1.581 0 00-.285-.047l-.375-.023a.654.654 0 00-.21.02l-.376.1a1.27 1.27 0 01-.62.008l-.188-.046-.188-.043a2.759 2.759 0 01-.457-.153l-.375-.164a.2.2 0 00-.11-.02l-.187.028-.187.023a.461.461 0 00-.18.07l-.187.118-.188.113a1.04 1.04 0 01-.718.157l-.375-.063a2.501 2.501 0 01-.47-.125l-.374-.14a1.817 1.817 0 00-.293-.083l-.375-.07c-.005.002-.013.01-.024.016l-.375.226c-.174.106-.363.18-.566.207l-.188.024-.187.027a1.087 1.087 0 01-.688-.144l-.187-.11-.188-.105a.457.457 0 00-.18-.063l-.187-.02-.187-.015a.27.27 0 00-.133.023l-.375.157a1.513 1.513 0 01-.559.12h-.187l-.188.005a2.68 2.68 0 00-.316.023l-.375.055a1.076 1.076 0 01-.691-.149l-.188-.109-.176-.105-.343.128c-.129.046-.259.09-.387.133l-.188.059-.187.062a.952.952 0 01-.778-.078l-.187-.105-.176-.102-.156.063-.188.066a1.663 1.663 0 01-.535.106l-.375.007a4.347 4.347 0 01-.422-.011l-.187-.012-.188-.016-.375-.027-.375-.023a3.889 3.889 0 00-.332-.012l-.375.008a4.702 4.702 0 01-.422-.012l-.375-.031a1.523 1.523 0 00-.28.007l-.376.04a4.053 4.053 0 01-.426.027h-.187l-.188.004c-.15 0-.3-.01-.449-.031l-.375-.055a3.327 3.327 0 01-.441-.098l-.188-.05-.187-.055c-.014-.004-.026-.007-.051.004l-.188.074-.187.078c-.148.06-.297.11-.45.145l-.374.085a.973.973 0 01-.77-.156l-.187-.129-.188-.125a.158.158 0 00-.027-.015l-.172.03-.188.032a2.11 2.11 0 00-.3.074l-.375.125c-.21.069-.429.079-.645.028l-.187-.043-.188-.047a1.314 1.314 0 00-.273-.035l-.375-.008a.883.883 0 00-.239.031L46 1.293l-.188.05a2.16 2.16 0 01-.488.071l-.375.008a1.703 1.703 0 01-.527-.07l-.188-.055-.187-.059a.37.37 0 00-.16-.011l-.375.054a6.63 6.63 0 01-.407.047l-.374.031a1.831 1.831 0 01-.52-.03l-.188-.036-.187-.039a.497.497 0 00-.188-.004l-.187.031-.188.035a3.085 3.085 0 01-.445.043l-.187.008-.188.004a2.797 2.797 0 00-.32.028l-.375.054a3.245 3.245 0 01-.442.035h-.375a1.184 1.184 0 01-.648-.195l-.188-.121-.18-.117-.152.05-.187.06c-.21.064-.43.069-.645.015l-.375-.094c-.007-.002-.018-.006-.047.008l-.374.172a1.106 1.106 0 01-.68.086l-.375-.07a.841.841 0 00-.235-.016l-.187.02-.188.015a1.622 1.622 0 01-.539-.043l-.375-.094a.363.363 0 00-.16-.004l-.375.07c-.207.04-.416.027-.617-.035l-.187-.058-.141-.047-.172.125-.187.133a.84.84 0 01-.465.16.821.821 0 01-.473-.14l-.187-.126-.188-.12-.023-.016-.172.035-.188.035c-.135.026-.27.05-.406.066l-.375.047c-.16.02-.32.021-.48.008l-.375-.031a.362.362 0 00-.157.027l-.375.14a.917.917 0 01-.808-.077l-.375-.227c-.052-.03-.078-.028-.086-.027l-.375.023a2.61 2.61 0 00-.313.04l-.375.07a1.638 1.638 0 00-.289.081l-.375.149a.926.926 0 01-.793-.059l-.375-.203-.008-.004-.171.055-.188.055a1.084 1.084 0 01-.695-.028l-.188-.066-.183-.07-.184.086-.188.085a1.75 1.75 0 01-.527.149l-.375.039a1.129 1.129 0 01-.664-.133l-.375-.203a.577.577 0 00-.203-.066l-.375-.047a1.363 1.363 0 00-.273-.008l-.188.016-.187.011a.375.375 0 00-.157.059l-.187.113-.188.11a.86.86 0 01-.453.125.863.863 0 01-.445-.137l-.188-.117-.132-.082-.118.066-.187.098a.873.873 0 01-.848-.008l-.187-.102-.125-.07-.13.082-.187.113c-.196.119-.419.19-.66.176l-.375-.023a26.566 26.566 0 01-.383-.024l-.187-.012-.188-.015a1.435 1.435 0 01-.574-.168l-.187-.102-.188-.097-.012-.008-.175.055-.188.054c-.119.035-.24.07-.36.11l-.374.125c-.173.056-.35.086-.531.086h-.376c-.191 0-.38-.04-.558-.11l-.188-.07-.187-.074a.927.927 0 00-.242-.063l-.188-.015-.187-.02a1.816 1.816 0 00-.293-.004l-.375.024a.987.987 0 00-.25.046l-.375.125c-.154.051-.31.09-.469.11l-.375.047c-.169.02-.34.02-.508-.004l-.375-.055a1.972 1.972 0 01-.5-.14l-.187-.083-.188-.078a.306.306 0 00-.144-.027l-.188.012-.187.015a.647.647 0 00-.211.055l-.188.078-.187.082a.916.916 0 01-.809-.035l-.187-.102-.141-.074-.137.078-.187.102a1.49 1.49 0 01-.563.18l-.187.015-.188.02c-.24.023-.5-.044-.738-.133l-.242-.09H.5a.5.5 0 010-1h.191l.086.031.325.121c.09.035.162.056.214.067.043.008.065.008.07.008l.188-.016.188-.02a.5.5 0 00.187-.062l.375-.203a.873.873 0 01.637-.086l.21.082.188.098.16.09.157-.07.187-.079c.172-.074.354-.123.54-.137L4.59.106 4.777.09c.21-.015.415.024.606.105l.187.082.188.079c.087.037.172.063.25.074l.187.023.188.028a.91.91 0 00.242.003L7 .438c.091-.012.186-.035.281-.067l.375-.125c.163-.054.33-.087.5-.098l.375-.023a2.83 2.83 0 01.457.008l.375.039c.173.017.344.057.508.121l.375.148c.07.028.134.04.191.04h.376a.69.69 0 00.218-.036l.375-.125c.13-.043.26-.083.39-.12l.376-.11.195-.035c.194-.016.383.03.555.12l.187.098.188.102a.445.445 0 00.176.055l.187.011.188.016c.122.009.244.017.367.024l.187.007.188.012c.008 0 .036.001.09-.031l.375-.227.21-.094a.829.829 0 01.442-.015l.219.086.187.101.14.078.138-.074.187-.097a.844.844 0 01.664-.063l.211.098.188.117.113.074.113-.066.188-.114c.18-.107.38-.178.593-.195l.188-.015.187-.012c.159-.012.319-.008.477.012l.375.046c.192.025.375.088.547.18l.187.098.188.101c.047.026.074.025.086.024l.187-.02.188-.023a.737.737 0 00.223-.063l.374-.172a.975.975 0 01.758-.027l.375.14a.079.079 0 00.055.005l.188-.059.187-.055a.979.979 0 01.758.086l.187.102.172.097.16-.066.188-.07a2.56 2.56 0 01.46-.133l.188-.04.188-.034c.144-.027.292-.046.437-.055l.375-.023c.241-.016.467.05.664.168l.188.113.164.101.152-.058.188-.07c.19-.072.39-.103.593-.086l.375.03c.09.008.18.008.27-.003L29.5.25c.114-.014.23-.033.344-.055l.375-.07a.995.995 0 01.742.16l.187.125.086.059.102-.07.187-.133.18-.102a.896.896 0 01.41-.078l.223.04.187.054.188.058c.049.015.09.016.133.008l.375-.07c.197-.038.395-.033.59.015l.187.051.188.047a.631.631 0 00.21.016l.188-.016.188-.02c.171-.015.345-.005.515.028l.188.039.187.035c.014.003.034.005.07-.012l.376-.171c.22-.102.46-.132.703-.07l.375.093a.187.187 0 00.105-.004l.375-.117.211-.04a.926.926 0 01.402.067l.18.094.188.117.187.121c.058.037.09.04.102.04h.375c.102-.001.206-.01.308-.024l.375-.055a3.88 3.88 0 01.43-.039l.375-.008c.1-.002.203-.013.305-.03l.187-.036.188-.031c.187-.033.376-.03.562.007l.375.079a.812.812 0 00.23.011l.376-.03c.114-.01.229-.023.343-.04l.375-.055c.199-.029.398-.013.59.043l.375.11a.722.722 0 00.223.03L45.3.415c.085-.002.173-.016.261-.039l.188-.047.188-.05c.167-.044.34-.067.511-.063l.375.008c.16.003.32.025.477.062l.187.043.188.047a.187.187 0 00.105-.008l.19-.058.187-.063c.148-.048.3-.084.45-.11l.187-.034.188-.032.199-.011c.197.008.381.08.539.187l.375.25.004.008.164-.04.187-.042c.098-.022.2-.053.301-.094l.188-.078.187-.074c.224-.091.463-.107.7-.04l.187.052.187.054c.104.03.207.052.309.067l.375.054c.1.015.201.024.3.024l.188-.004h.188c.107 0 .216-.008.324-.02l.187-.02.188-.023a2.53 2.53 0 01.469-.007l.187.015.188.012c.109.008.218.013.328.012l.375-.008c.139-.002.279.002.418.012l.187.015.188.012.375.027.187.016.188.012c.108.008.22.01.328.007l.375-.007a.666.666 0 00.215-.043l.187-.07.188-.067.203-.05a.916.916 0 01.402.034l.188.082.187.106.18.105.168-.058.187-.059c.121-.04.242-.082.364-.125l.187-.07.188-.067.207-.047a.94.94 0 01.586.13l.374.218c.024.014.041.018.047.02h.012L62.31.45l.187-.023c.144-.02.29-.033.434-.035l.187-.004h.188a.519.519 0 00.191-.043l.188-.078.187-.082c.195-.082.404-.115.617-.094l.188.02.187.015c.204.02.394.09.57.191l.376.211c.04.024.059.024.062.024l.188-.028.187-.023a.478.478 0 00.184-.07l.375-.227c.16-.097.34-.158.53-.16l.196.016.188.035.187.039c.154.03.307.07.457.125l.375.14c.096.036.19.06.281.075l.188.031.184.031a.24.24 0 00.035-.02l.187-.113.188-.117a1.46 1.46 0 01.57-.21L70.56.05l.187-.028c.222-.03.44.007.64.094l.376.164c.1.043.198.075.293.098l.187.043.188.047c.043.01.084.008.129-.004l.187-.047.188-.05a1.67 1.67 0 01.539-.052l.375.024c.156.01.311.035.465.074l.187.05.188.048a.46.46 0 00.187.011l.375-.046a.519.519 0 00.191-.067l.188-.105.187-.11.192-.082a.902.902 0 01.406-.035l.207.059.188.074.187.07c.1.04.198.07.293.09l.188.04.187.034a.67.67 0 00.215.012l.375-.047a1.6 1.6 0 01.543.031l.187.04.188.042a.752.752 0 00.226.016l.188-.012.187-.015a.878.878 0 00.239-.055l.375-.14c.156-.06.315-.101.476-.126l.188-.027.187-.031.196-.008c.188.01.364.074.52.172l.187.117.132.082.121-.062.188-.098a.973.973 0 01.754-.074l.375.117c.11.034.22.06.328.082l.375.078c.007.002.02.005.055-.012l.187-.09.188-.093c.212-.104.447-.143.687-.098l.375.07c.077.015.152.02.227.012l.187-.023.188-.02c.121-.013.245-.024.367-.039L87.25.2a3.16 3.16 0 01.445-.023l.375.008c.186.003.369.04.543.105l.188.07.152.059.172-.098.188-.109c.204-.117.44-.175.687-.145l.375.047c.09.011.18.012.27.004l.187-.015.188-.02c.202-.018.4.012.59.082l.374.14c.025.01.041.01.059.005l.188-.059.187-.055a1.13 1.13 0 01.676.008l.375.125a.52.52 0 00.191.028l.188-.012.187-.008c.122-.007.246-.014.367-.023l.375-.032a3.45 3.45 0 00.325-.039l.375-.062c.242-.042.477.002.687.11l.188.093.187.098c.04.02.059.016.067.015l.375-.062a1.63 1.63 0 00.285-.078l.187-.07.188-.067.199-.051a.95.95 0 01.582.11l.187.097.188.102a.498.498 0 00.187.058l.375.04a.287.287 0 00.137-.024l.375-.156c.202-.084.417-.118.637-.086l.375.054c.04.006.084.004.137-.015l.187-.07.188-.067c.189-.068.388-.097.589-.078l.188.02.187.015c.17.016.338.054.5.113l.188.07.18.067.003-.004.188-.082.187-.086c.182-.083.374-.133.575-.137h.187l.188-.003c.18-.003.358.023.531.078l.375.117c.112.035.225.065.336.09l.187.043.184.039a.137.137 0 00.023-.012l.375-.21.2-.083a.883.883 0 01.625.043l.375.164.015.008h.008l.375-.117a2.41 2.41 0 01.473-.098l.375-.039c.255-.026.489.048.691.176l.375.234a.219.219 0 00.027.016l.18-.035.188-.036c.174-.032.351-.037.527-.015l.375.047c.043.005.09 0 .145-.02l.187-.066.188-.07c.189-.068.388-.094.589-.075l.188.016.187.02a.87.87 0 00.239-.012l.187-.032.188-.035c.159-.029.319-.044.48-.039l.188.008.187.004a.77.77 0 00.227-.027l.375-.102c.222-.061.45-.053.668.02l.375.125.363.117.187.058.149.047.363-.242a1.08 1.08 0 01.524-.184l.195.004.187.028.188.023c.211.028.406.112.582.227l.375.242a.162.162 0 00.047.023h.004l.375-.039a.774.774 0 00.226-.062l.188-.082.187-.078a.982.982 0 01.75-.024l.188.074.187.07a.9.9 0 00.242.055l.375.032c.086.007.172.005.258-.008l.188-.028.187-.03c.151-.024.302-.033.453-.032h.188l.187.004c.092 0 .184-.01.278-.028l.375-.07a1.53 1.53 0 01.558-.004l.188.035.187.032.371.066.188.031.187.035c.057.01.113.007.172-.007l.188-.043.187-.047c.155-.037.312-.06.469-.067l.375-.015c.082-.004.167-.02.254-.047l.187-.055.188-.058.207-.04a.973.973 0 01.574.149l.188.113.113.07.117-.07.188-.11a1.03 1.03 0 01.718-.144l.188.032.187.035c.07.012.139.011.207 0l.375-.063a1.2 1.2 0 01.645.075l.375.148c.102.04.203.075.301.098l.375.086c.049.01.095.011.144 0l.188-.047.187-.043c.11-.026.222-.06.332-.098l.375-.125c.197-.067.402-.09.61-.059l.187.028.188.031a.37.37 0 00.16-.012l.375-.109c.166-.048.337-.072.508-.074l.375-.008c.251-.003.48.088.672.223l.187.128.184.133.152-.039.188-.047c.154-.04.311-.064.468-.074l.375-.023c.147-.01.295-.01.442 0l.187.011.188.016a.238.238 0 00.117-.031l.187-.094.188-.09a.917.917 0 01.605-.082l.203.07.375.172c.096.045.189.078.278.098l.375.086c.043.01.083.008.129-.004l.375-.102c.133-.036.268-.069.402-.097l.188-.043.187-.04a2.76 2.76 0 01.461-.054l.375-.016a3.58 3.58 0 01.437.008l.188.02.187.015c.112.01.225.015.336.016h.188l.187.004c.18.002.357.03.528.086l.375.125h.004a.047.047 0 00.015-.004l.375-.164.207-.063a.883.883 0 01.41.024l.2.082.187.101.188.106a.342.342 0 00.152.047l.188.008.187.004c.007 0 .03-.004.078-.036l.188-.125.187-.12a.874.874 0 01.645-.145l.226.074.188.09.179.09.172-.067.188-.074a1.86 1.86 0 01.515-.117l.375-.031c.155-.013.31-.013.465.004l.375.039a.786.786 0 00.231-.008l.187-.04.188-.034.195-.016c.193.002.375.062.535.16l.188.113.187.118c.012.007.02.01.024.011l.179-.039.188-.035c.111-.022.224-.05.336-.082l.375-.11c.246-.07.492-.044.719.06l.375.171a.505.505 0 00.191.047l.187.008.188.012c.014 0 .043-.004.098-.036l.375-.218.207-.09a.853.853 0 01.425-.02l.215.074.188.094.187.09a.08.08 0 00.024.008l.375-.102c.237-.065.476-.049.699.043l.375.157a.28.28 0 00.137.023l.187-.016.188-.02c.141-.012.284-.02.425-.019h.188l.187.004a.89.89 0 00.239-.035l.375-.102c.24-.066.483-.046.707.051l.375.164c.043.02.071.02.093.016l.375-.063c.176-.028.352-.029.528-.003l.187.027.176.027a.158.158 0 00.035-.02l.188-.128.187-.125a.85.85 0 01.879-.067l.375.188c.091.045.177.076.258.094l.187.039.168.039.016-.012.375-.242a.961.961 0 01.578-.164l.215.039.375.11a.218.218 0 00.117.003l.375-.086c.219-.051.438-.04.649.031l.375.125c.07.024.135.034.195.032l.375-.016a.81.81 0 00.23-.047l.188-.062.187-.067a.96.96 0 01.774.063l.187.101.188.098.012.008.183-.051.188-.055c.16-.044.324-.067.488-.074l.375-.016a3.89 3.89 0 01.43.008l.375.024c.161.011.322.04.48.086l.188.054.152.047.375-.234a.978.978 0 01.762-.14l.375.093c.149.036.299.082.445.14l.187.075.188.078a.446.446 0 00.176.035l.187-.008.563-.011.187-.008.188-.004c.094-.002.189-.012.285-.031l.375-.079c.137-.027.276-.049.414-.066l.375-.047c.115-.014.232-.03.348-.05l.375-.07a1.17 1.17 0 01.644.066l.188.07.156.066.176-.097.187-.102.199-.082a.872.872 0 01.418-.016l.211.07.188.087.187.09c.064.03.114.039.157.039h.375a3.22 3.22 0 00.324-.02l.187-.02.188-.023c.092-.01.186-.03.281-.059l.188-.054.187-.059a1.03 1.03 0 01.727.047l.375.164c.033.015.049.015.062.012l.375-.086c.184-.041.372-.048.559-.02l.187.028.188.03c.101.016.203.024.304.024h.375c.172.002.342.028.508.075l.188.054.187.051a.41.41 0 00.168.016l.375-.055c.106-.015.214-.035.32-.063l.188-.05.188-.047c.152-.04.306-.066.46-.078l.375-.032c.232-.018.451.04.649.145l.187.098.188.101c.06.032.104.04.133.04l.375-.009c.109-.002.218-.007.328-.02l.187-.023.188-.019a.868.868 0 00.238-.063l.375-.156c.198-.082.409-.115.625-.09l.188.02.187.023a.511.511 0 00.191-.011L195 .176l.188-.047c.192-.05.389-.058.585-.023l.188.03.187.036c.073.013.144.01.215 0l.375-.055c.231-.034.455.006.66.102l.188.086.187.09c.033.015.046.01.055.007l.188-.039.187-.043c.149-.033.299-.056.449-.066l.375-.023a1.28 1.28 0 01.614.113l.375.164c.026.012.035.01.043.008l.187-.051.188-.047a2 2 0 00.304-.11l.375-.163.192-.063a.925.925 0 01.394.004l.196.062.375.172a1.5 1.5 0 00.281.094l.187.047.188.043a.673.673 0 00.215.016l.187-.02.188-.016c.16-.014.32-.011.48.008l.188.02.187.023.043-.023.375-.242.184-.098a.888.888 0 01.621-.02l.375.125c.098.033.198.053.293.067l.187.031.188.027a.461.461 0 00.179-.011l.375-.094c.156-.039.314-.06.473-.066l.188-.012.187-.008a2.28 2.28 0 00.305-.035l.187-.035.188-.04c.238-.045.471-.006.683.094l.375.18a.36.36 0 00.157.04l.187-.005h.188a.394.394 0 00.164-.043l.375-.18.191-.07a.924.924 0 01.598.055l.375.164a.081.081 0 00.027.008l.012-.004.187-.05.188-.056c.187-.053.38-.07.574-.046l.375.046a2.8 2.8 0 01.457.098l.188.055.187.058c.029.01.053.01.082 0l.375-.117c.242-.075.489-.062.719.035l.187.082.188.078a.219.219 0 00.117.02l.187-.023.188-.028c.099-.013.199-.034.301-.062l.187-.051.188-.055a1.18 1.18 0 01.656.008l.375.11a.206.206 0 00.113.003l.188-.043.187-.046c.1-.025.202-.057.305-.098l.188-.074.187-.078.191-.055a.97.97 0 01.575.07l.375.164c.04.018.063.02.082.016l.375-.07c.202-.038.404-.03.601.027l.375.11h.012a.082.082 0 00.027-.009l.188-.082.187-.078a.964.964 0 01.575-.066l.191.055.375.156a.74.74 0 00.223.054l.375.032c.135.01.271.024.406.043l.375.054a.25.25 0 00.125-.02l.187-.073.188-.07c.17-.067.346-.108.527-.118l.188-.012.187-.007c.1-.006.2-.019.301-.04l.375-.078c.215-.044.431-.03.637.04l.187.066.188.062a.072.072 0 00.054 0l.375-.125c.177-.06.361-.09.547-.086l.375.008c.189.004.372.044.547.114l.375.148c.026.01.04.012.055.008l.375-.11a1.26 1.26 0 01.625-.015l.375.086c.044.01.086.012.133 0l.375-.102c.146-.039.293-.067.441-.086l.375-.047c.151-.018.305-.025.457-.02l.188.009.187.004c.179.006.354.044.523.105l.188.066.187.07a.412.412 0 00.172.024l.188-.012.187-.015c.179-.013.357.003.532.047l.375.093a.349.349 0 00.156.004l.187-.039.188-.035a1.3 1.3 0 01.601.02l.375.101h.004l.008-.004c.004 0 .009 0 .016-.004l.187-.093.188-.09c.19-.093.397-.141.613-.133l.375.016a.906.906 0 00.242-.028l.375-.086c.22-.051.441-.038.653.036l.375.132c.095.034.19.058.281.07l.187.024.188.027c.097.014.196.023.293.02l.187-.008.188-.004a.678.678 0 00.215-.043l.187-.07.188-.066.203-.051a.945.945 0 01.586.117l.187.102.168.097.153-.066.187-.074a1.51 1.51 0 01.563-.114h.374c.098 0 .198-.007.297-.023l.375-.063c.254-.04.494.02.704.141l.187.105.187.11c.055.031.086.036.102.035l.188-.012.187-.008a.357.357 0 00.156-.05l.188-.102.187-.105a1.19 1.19 0 01.637-.16l.375.015c.098.004.198 0 .297-.012l.187-.02.188-.023h.207c.198.022.377.105.527.22l.188.144.172.129.129-.043.187-.059a1.43 1.43 0 01.574-.059l.375.04a.84.84 0 00.235-.012l.187-.031.188-.036a2.49 2.49 0 00.312-.078l.375-.117a1.72 1.72 0 01.531-.086l.188.004h.187c.132 0 .263.005.395.012l.375.015c.16.008.32.034.476.075l.188.046.188.051c.098.026.196.043.292.051l.375.031c.142.012.285.032.426.059l.188.035.176.035a.277.277 0 00.027-.015l.375-.235c.195-.123.42-.198.664-.187l.375.015c.131.006.264.017.394.028l.188.015.187.012c.14.012.279.03.418.055l.188.035.187.031c.15.026.299.065.446.113l.187.063.188.058c.059.02.111.026.16.02l.187-.023.188-.02a.806.806 0 00.23-.066l.188-.086.187-.082a1 1 0 01.743-.032l.375.133c.02.007.032.006.05 0l.375-.125c.236-.078.48-.071.711.016l.375.14c.103.04.205.069.305.09l.187.043.188.04a.533.533 0 00.195.007l.188-.031.187-.027c.153-.024.307-.032.461-.028l.375.008c.083.002.168-.004.254-.023l.375-.086c.15-.034.302-.054.453-.063l.375-.023c.217-.013.425.03.617.12l.188.09.125.06.144-.095.188-.117a.898.898 0 01.621-.14l.219.058.187.082.188.078a.442.442 0 00.176.04h.375c.072 0 .15-.015.23-.04l.375-.117c.24-.074.486-.06.715.035l.375.157a.252.252 0 00.129.02l.187-.02.188-.024c.164-.018.328-.017.492.004l.375.047c.004-.001.02-.005.043-.02l.187-.12.188-.118a.84.84 0 01.465-.137c.088.002.17.018.246.043l.211.106.187.125.172.117.145-.05.187-.063c.156-.052.316-.088.477-.106l.375-.039c.168-.018.336-.017.504.008l.187.031.188.028c.113.017.227.03.34.039l.187.015.188.012c.144.011.29.035.433.063l.375.07c.104.02.206.036.309.043l.375.023c.1.007.2.005.301-.004l.375-.03c.113-.01.229-.026.343-.044l.375-.055a1.49 1.49 0 00.282-.074l.375-.133a.995.995 0 01.742.024l.187.082.188.078c.03.013.042.011.054.008l.375-.094c.184-.046.372-.055.559-.031l.375.047c.14.017.282.04.422.07l.187.043.188.04a.98.98 0 00.25.026l.375-.015a.325.325 0 00.148-.047l.188-.102.187-.105a.982.982 0 01.75-.098l.375.102a.456.456 0 00.18.015l.187-.023.188-.027c.129-.017.258-.03.387-.043l.375-.04c.133-.013.269-.02.402-.027l.188-.011.187-.008c.171-.009.34.005.508.043l.375.086a.415.415 0 00.172.004l.187-.036.188-.039.195-.015c.193.002.375.061.535.16l.188.117.164.102.144-.059.188-.07a1 1 0 01.734 0l.375.14a.831.831 0 00.235.055l.375.031c.087.007.177.005.265-.008l1.125-.164a2.92 2.92 0 01.457-.027l.375.008c.154.003.309.02.461.05l.188.04.187.035a.501.501 0 00.188.004l.375-.07c.129-.024.261-.047.39-.067l.375-.055c.109-.016.219-.039.328-.066l.375-.094a1.11 1.11 0 01.676.043l.188.07.187.075.012-.004.375-.149c.209-.083.432-.107.656-.062l.188.035.187.04c.16.03.319.08.473.144l.375.156a.067.067 0 00.012.004l.003.004.012-.004.188-.059.187-.062c.155-.05.314-.084.473-.102l.375-.039a4.25 4.25 0 01.422-.027l.375-.008c.165-.003.329.014.492.05l.375.087a.17.17 0 00.098-.008l.375-.133c.154-.055.313-.095.472-.117l.188-.024.187-.027c.183-.025.37-.019.551.02l.187.039.188.043c.14.03.279.066.418.109l.187.059.188.054v.004l.012-.008.375-.18.214-.07a.854.854 0 01.43.028l.203.09.375.226c.022.013.036.015.039.016l.188-.028.187-.03c.159-.026.321-.037.481-.028l.187.011.188.008a.647.647 0 00.211-.023l.187-.055.188-.05c.131-.038.263-.074.394-.106l.188-.043.187-.047c.208-.05.42-.044.625.012l.375.101a.34.34 0 00.153.008l.375-.07c.177-.033.356-.037.535-.012l.375.055c.074.01.148.008.222-.004l.188-.031.187-.028c.168-.027.339-.032.508-.015l.188.02.187.015c.124.012.248.027.371.039l.188.016.187.02c.162.015.324.047.481.097l.187.058.157.051.179-.11.188-.116c.19-.117.407-.19.64-.188l.188.004z" fill="#A89484"/></svg>