<svg width="86" height="4" viewBox="0 0 86 4" fill="none" xmlns="http://www.w3.org/2000/svg">
<path d="M15.1719 0.108582L15.5469 0.225769L15.9219 0.335144C16.1623 0.409522 16.4004 0.487453 16.6406 0.553894L17.3906 0.757019C17.5665 0.805667 17.739 0.830043 17.9062 0.835144L18.2812 0.850769L18.6562 0.858582C18.8442 0.864269 19.0366 0.856613 19.2266 0.827332L19.6016 0.764832L19.9766 0.710144C20.2294 0.671188 20.4815 0.628597 20.7344 0.592957L21.1094 0.546082L21.4844 0.491394C21.8858 0.434823 22.2864 0.473479 22.6719 0.592957L23.0469 0.702332L23.3984 0.819519L23.4062 0.811707L23.7812 0.616394L24.1562 0.413269L24.5938 0.249207C24.7474 0.214694 24.9102 0.204856 25.0781 0.217957C25.245 0.231018 25.4025 0.264233 25.5469 0.319519L25.9375 0.530457L26.3125 0.788269L26.5234 0.936707L26.7266 0.811707L27.1016 0.585144C27.4208 0.388919 27.7805 0.264432 28.1641 0.257019L28.5547 0.288269L29.3047 0.428894C29.3725 0.441414 29.4478 0.438311 29.5391 0.405457L30.2891 0.139832C30.7666 -0.0317933 31.2626 -0.0260024 31.7344 0.155457L32.1094 0.296082L32.4844 0.444519C32.7136 0.532658 32.944 0.607324 33.1719 0.678894L33.5469 0.796082L33.9219 0.921082C34.0748 0.969067 34.2211 0.985424 34.3594 0.983582L34.7344 0.975769H35.1094C35.3166 0.9728 35.526 0.95785 35.7344 0.928894L36.4844 0.819519C36.6563 0.795522 36.839 0.748723 37.0234 0.678894L37.7734 0.397644L38.2031 0.288269C38.4859 0.254981 38.7633 0.294875 39.0234 0.389832L39.4062 0.577332L40.1562 1.04608L40.1641 1.05389L40.5078 0.975769L40.8828 0.882019C41.262 0.788034 41.6532 0.772153 42.0391 0.835144L42.4141 0.889832L42.7891 0.952332C42.8201 0.957054 42.8645 0.958996 42.9453 0.921082L43.6953 0.561707C44.0561 0.39097 44.4428 0.293272 44.8438 0.280457L45.2188 0.264832L45.5938 0.257019C45.8006 0.250377 46.0103 0.227961 46.2188 0.194519L46.5938 0.139832L46.9688 0.0773315L47.3828 0.053894C47.7858 0.080606 48.1507 0.24232 48.4609 0.467957L48.8359 0.741394L49.0547 0.905457L49.6172 0.577332C50.0165 0.344239 50.4633 0.268792 50.8984 0.366394L51.3281 0.522644L51.7031 0.710144L52.0781 0.905457L52.0938 0.913269L52.4609 0.803894L52.8359 0.686707C53.3048 0.546142 53.7833 0.574798 54.2344 0.749207L54.6094 0.889832L54.9844 1.03827C55.1183 1.09008 55.2372 1.10418 55.3438 1.10077L55.7188 1.09296L56.0938 1.07733C56.1234 1.07624 56.1952 1.06696 56.3203 0.983582L57.0703 0.483582L57.4844 0.280457C57.6341 0.228115 57.7963 0.192401 57.9688 0.186707C58.1424 0.181159 58.3067 0.205248 58.4609 0.249207L58.8906 0.436707L59.2656 0.663269L59.6094 0.874207L59.9219 0.764832L60.2969 0.632019C60.6543 0.509272 61.029 0.448876 61.4062 0.460144L61.7812 0.475769L62.1562 0.483582C62.4167 0.491377 62.6771 0.506123 62.9375 0.522644L63.6875 0.569519C63.854 0.580091 64.0251 0.569852 64.1953 0.538269L64.9453 0.397644C65.2331 0.344376 65.523 0.306623 65.8125 0.288269L66.5625 0.241394C66.8243 0.224809 67.0897 0.217161 67.3516 0.210144L67.7266 0.202332L68.1016 0.186707C68.5013 0.176498 68.8902 0.253752 69.2578 0.405457L70.0078 0.717957C70.1441 0.774069 70.2617 0.796945 70.3672 0.796082L70.7422 0.788269H71.1172C71.282 0.786889 71.4522 0.763001 71.625 0.717957L72 0.624207L72.375 0.522644C72.8612 0.39654 73.3458 0.452753 73.7891 0.655457L74.5391 0.999207C74.6086 1.03113 74.6469 1.03517 74.6719 1.03046L75.4219 0.874207C75.6929 0.818894 75.9705 0.770857 76.2422 0.733582L76.6172 0.686707L76.9922 0.632019C77.1819 0.605813 77.3743 0.56134 77.5703 0.499207L78.3203 0.264832C78.7024 0.143512 79.1006 0.0967948 79.5 0.147644L79.875 0.202332L80.25 0.249207C80.5178 0.283574 80.7874 0.3252 81.0547 0.374207L81.4297 0.444519L81.8047 0.507019C81.9465 0.533012 82.0873 0.538495 82.2266 0.538269H82.5156L83.0781 0.514832C83.3078 0.504118 83.5365 0.518892 83.7656 0.538269H85C85.3312 0.538269 85.6071 0.712183 85.7891 0.960144L86 1.10858V1.64764C86 2.1583 85.6476 2.43788 85.4844 2.53046C85.3311 2.61663 85.1891 2.63947 85.1406 2.64764C85.025 2.66694 84.9213 2.66467 84.875 2.66327C84.7624 2.6598 84.6303 2.64888 84.5 2.63202L84.125 2.58514L83.75 2.53046C83.5578 2.5055 83.3628 2.49814 83.1719 2.50702L82.7969 2.53046L82.4219 2.54608C82.0948 2.56134 81.7689 2.53507 81.4453 2.47577L81.0703 2.40546L80.6953 2.34296C80.4636 2.30047 80.2313 2.26331 80 2.23358L79.625 2.18671L79.25 2.13202C79.1506 2.11926 79.0464 2.13416 78.9297 2.17108L78.1797 2.40546C77.8774 2.50142 77.5665 2.57404 77.2578 2.61639L76.8828 2.66327L76.5078 2.71796C76.2815 2.74908 76.0551 2.78887 75.8281 2.83514L75.4531 2.91327L75.0781 2.98358C74.6044 3.08028 74.1373 3.01475 73.7109 2.81952L72.9609 2.47577C72.9271 2.46021 72.9032 2.46062 72.8984 2.46014C72.8944 2.45994 72.8862 2.45723 72.875 2.46014L72.5 2.55389L72.125 2.65546C71.7987 2.74033 71.4672 2.78553 71.1328 2.78827H70.7578L70.3828 2.79608C69.9887 2.79925 69.6054 2.71943 69.2422 2.56952L68.4922 2.25702C68.3614 2.20324 68.2471 2.18406 68.1484 2.18671L67.7734 2.19452L67.3984 2.21014C67.1618 2.21653 66.9242 2.22639 66.6875 2.24139L65.9375 2.28827C65.7283 2.30156 65.5156 2.32726 65.3047 2.36639L64.5547 2.50702C64.2262 2.56773 63.8946 2.59052 63.5625 2.56952L63.1875 2.54608L62.8125 2.51483C62.5736 2.49967 62.3326 2.49072 62.0938 2.48358L61.7188 2.47577L61.3438 2.46014C61.2219 2.45668 61.0944 2.48217 60.9531 2.53046L60.2031 2.78046C59.6429 2.97282 59.0829 2.88511 58.6094 2.60077L58.2344 2.37421L58.0234 2.24921L57.8047 2.39764L57.4297 2.64764C57.056 2.89676 56.6271 3.06224 56.1562 3.07733L55.7812 3.09296L55.4062 3.10077C55.0139 3.11324 54.6307 3.04634 54.2656 2.90546L53.5156 2.60858C53.4682 2.59023 53.4438 2.59214 53.4141 2.60077L53.0391 2.71796L52.6641 2.82733C52.1488 2.98181 51.6321 2.9203 51.1719 2.68671L50.7969 2.49139L50.5312 2.36639L50.2578 2.52264L49.8828 2.74139C49.6118 2.89959 49.2851 2.99338 48.9297 2.96796C48.5799 2.94248 48.2794 2.80681 48.0391 2.63202L47.2891 2.08514C47.2715 2.07231 47.2522 2.06733 47.2422 2.06171L46.9062 2.10858L46.5312 2.17108C46.2406 2.21763 45.9484 2.24768 45.6562 2.25702L45.2812 2.26483L44.9062 2.28046C44.8077 2.28371 44.693 2.30895 44.5547 2.37421L44.1797 2.55389L43.8047 2.72577C43.389 2.92247 42.9295 3.00538 42.4609 2.92889L41.7109 2.80389C41.5984 2.78593 41.4863 2.79022 41.3672 2.81952L40.6172 3.00702C40.0653 3.14383 39.5371 3.01876 39.0938 2.74139L38.7188 2.50702L38.3828 2.30389L38.1016 2.41327L37.7266 2.55389C37.4126 2.67257 37.0919 2.7582 36.7656 2.80389L36.3906 2.85077L36.0156 2.90546C35.7254 2.94596 35.432 2.97154 35.1406 2.97577H34.7656L34.3906 2.98358C34.0302 2.98875 33.6738 2.93549 33.3281 2.82733L32.5781 2.59296C32.3079 2.50819 32.0345 2.41513 31.7656 2.31171L31.3906 2.16327L31.0156 2.02264C31.0038 2.01808 30.9959 2.01557 30.9922 2.01483H30.9609L30.5859 2.15546L30.2109 2.28827C29.8036 2.43445 29.3759 2.47674 28.9453 2.39764L28.5703 2.32733L28.1953 2.26483C28.1853 2.26906 28.169 2.27561 28.1484 2.28827L27.7734 2.51483L27.3984 2.74921C27.1365 2.91014 26.8208 3.01851 26.4688 3.00702C26.1181 2.99471 25.8105 2.86408 25.5625 2.69452L25.1875 2.43671L24.9297 2.26483L24.7188 2.38202L24.3438 2.57733C23.8797 2.82277 23.3537 2.89647 22.8281 2.73358L22.0781 2.49921C21.9646 2.46416 21.8635 2.45438 21.7656 2.46796L21.0156 2.57733C20.7699 2.61196 20.5192 2.64883 20.2734 2.68671L19.8984 2.74139L19.5234 2.80389C19.215 2.85117 18.9042 2.86805 18.5938 2.85858L18.2188 2.85077L17.8438 2.83514C17.5117 2.82495 17.1828 2.77608 16.8594 2.68671L16.4844 2.58514L16.1094 2.47577C15.8496 2.40391 15.5876 2.32949 15.3281 2.24921L14.5781 2.01483C14.5062 1.99291 14.4481 1.99802 14.3828 2.01483L14.0078 2.10858L13.6328 2.21014C13.252 2.31038 12.8584 2.33393 12.4688 2.27264L12.0938 2.21014L11.7188 2.15546C11.6722 2.14819 11.6127 2.14762 11.5234 2.18671L10.7734 2.51483C10.406 2.67538 10.0133 2.76205 9.60938 2.75702L9.23438 2.74921H8.85938C8.66882 2.74702 8.474 2.75708 8.28125 2.78827L7.53125 2.91327C6.99469 2.99911 6.49629 2.84928 6.07812 2.57733L5.32812 2.09296L5.25781 2.06171L4.89062 2.10858L4.51562 2.16327C4.39802 2.18077 4.25906 2.22565 4.10156 2.31171L3.35156 2.71796C2.71563 3.06488 2.0072 2.93212 1.46094 2.73358L0.835938 2.50702C0.363141 2.42754 0 2.03366 0 1.53827C0 0.985984 0.447715 0.538269 1 0.538269H1.27344L1.44531 0.600769L2.14062 0.850769C2.29947 0.908635 2.40115 0.932553 2.45312 0.936707L2.77344 0.757019L3.14844 0.553894C3.48864 0.368418 3.85386 0.242018 4.23438 0.186707L4.98438 0.0773315L5.375 0.0617065C5.75624 0.0838915 6.11152 0.211459 6.42188 0.413269L6.79688 0.663269L7.17188 0.905457C7.19167 0.91822 7.20808 0.923934 7.21875 0.928894L7.22656 0.936707L7.59375 0.874207L7.96875 0.819519C8.27395 0.77031 8.58323 0.745379 8.89062 0.749207H9.26562L9.64062 0.757019C9.73499 0.757742 9.84629 0.735952 9.97656 0.678894L10.7266 0.350769C11.1362 0.172013 11.579 0.107759 12.0312 0.178894L12.4062 0.233582L12.7812 0.296082C12.8905 0.31312 12.9993 0.303354 13.1172 0.272644L13.4922 0.178894L13.8672 0.0773315C14.3004 -0.0366963 14.7455 -0.0233095 15.1719 0.108582Z" fill="#A89484"/>
</svg>
