<svg width="360" height="5" viewBox="0 0 360 5" fill="none" xmlns="http://www.w3.org/2000/svg">
<path d="M21.2109 0.0200195C21.9574 0.033063 22.6266 0.315216 23.1914 0.723145L23.7539 1.12158L24.1992 1.46143L24.5625 1.30908L25.125 1.08643C25.6918 0.857011 26.2904 0.742436 26.9062 0.781738L28.0312 0.852051C28.2817 0.86823 28.5373 0.863383 28.793 0.816895L29.918 0.605957C30.4019 0.517736 30.8937 0.478775 31.3828 0.500488L31.9453 0.535645L32.5078 0.559082C32.9538 0.57907 33.4013 0.627845 33.8438 0.711426L34.9688 0.922363C35.3842 1.00091 35.7979 1.10043 36.2109 1.21533L36.7734 1.36768L37.3359 1.53174C37.4968 1.57654 37.6464 1.58131 37.793 1.55518L38.918 1.34424C39.2567 1.28292 39.5972 1.20825 39.9375 1.12158L41.0625 0.840332C41.5795 0.708556 42.1139 0.648472 42.6445 0.67627L43.207 0.711426L43.7695 0.734863C44.2692 0.761311 44.7617 0.857172 45.2461 1.00439L45.8086 1.18018L46.3711 1.34424C46.6035 1.41499 46.8267 1.45198 47.0391 1.44971L48.1641 1.42627C48.2192 1.42556 48.3316 1.41209 48.5156 1.29736L49.6406 0.594238C50.3067 0.178634 51.0984 0.000382805 51.9258 0.20752L53.0508 0.48877C53.2328 0.534428 53.407 0.539524 53.5781 0.512207L54.1406 0.418457L54.7031 0.336426C55.2293 0.252606 55.7584 0.24524 56.2852 0.324707L56.8477 0.418457L57.4102 0.500488C57.688 0.542529 57.9673 0.548894 58.2422 0.535645L59.3672 0.48877C59.9348 0.461638 60.4913 0.544804 61.0312 0.723145L61.5938 0.910645L62.1562 1.08643C62.3977 1.1662 62.6281 1.20885 62.8477 1.21533L63.4102 1.22705L63.9727 1.25049C64.1148 1.25434 64.2829 1.22677 64.4766 1.14502L65.0391 0.898926L65.6016 0.664551L66.2109 0.48877C66.6166 0.414985 67.0236 0.428459 67.418 0.535645L67.9922 0.758301L68.5547 1.05127L69.1172 1.33252C69.357 1.45517 69.5745 1.51871 69.7617 1.54346L70.3242 1.62549L70.8867 1.6958C71.0965 1.72323 71.3049 1.71397 71.5195 1.67236L72.082 1.56689L72.6445 1.44971C73.048 1.37069 73.459 1.30535 73.8633 1.25049L74.4258 1.18018L74.9883 1.09814C75.5078 1.02793 76.029 1.03821 76.5469 1.12158L77.6719 1.30908C77.8921 1.34476 78.1203 1.3429 78.3398 1.30908L78.9023 1.21533L79.4648 1.1333C79.9474 1.0594 80.4323 1.0403 80.918 1.07471L81.4805 1.10986L82.043 1.15674C82.3116 1.17579 82.5807 1.15943 82.8516 1.12158L83.4141 1.05127L83.9766 0.969238C84.3544 0.916245 84.7354 0.867034 85.1133 0.816895L85.6758 0.734863L86.2383 0.664551C86.7369 0.598395 87.239 0.593808 87.7383 0.652832L88.3008 0.723145L88.8633 0.781738C89.0061 0.798625 89.1585 0.793065 89.332 0.734863L89.8945 0.535645L90.457 0.348145C91.0027 0.16406 91.5692 0.0823339 92.1445 0.11377L92.707 0.148926L93.2695 0.172363C93.7606 0.199193 94.2443 0.292739 94.7227 0.430176L95.2852 0.58252L95.8477 0.746582C96.0639 0.808831 96.2717 0.828503 96.4688 0.816895L97.0312 0.781738L97.5938 0.758301C98.0052 0.73339 98.4243 0.717918 98.8359 0.723145L99.3984 0.734863H99.9609C100.359 0.739995 100.758 0.756645 101.156 0.781738L102.281 0.852051C102.441 0.862107 102.614 0.839632 102.809 0.77002L103.934 0.371582C104.489 0.173319 105.066 0.0875891 105.656 0.125488L106.781 0.195801C107.304 0.229795 107.818 0.344399 108.316 0.523926L109.441 0.922363C109.67 1.00501 109.887 1.04814 110.086 1.05127L110.648 1.06299H111.211C111.493 1.0674 111.781 1.05291 112.066 1.00439L112.629 0.910645L113.191 0.805176C113.501 0.752354 113.815 0.68784 114.129 0.594238L114.691 0.418457L115.254 0.254395C116.099 0.00200533 116.922 0.174771 117.609 0.605957L118.734 1.30908C118.808 1.35522 118.859 1.37138 118.887 1.37939C118.91 1.38567 118.927 1.3917 118.934 1.39111L120.059 1.29736C120.552 1.25442 121.045 1.27066 121.535 1.34424L122.66 1.5083C122.85 1.53666 123.038 1.52846 123.234 1.48486L123.797 1.35596L124.359 1.23877C124.706 1.16151 125.054 1.06704 125.402 0.969238L125.965 0.816895L126.527 0.652832C127.239 0.452747 127.965 0.506215 128.637 0.781738L129.762 1.25049C129.922 1.31557 130.05 1.33125 130.16 1.3208L131.285 1.20361C131.752 1.1569 132.224 1.15154 132.691 1.19189L133.816 1.28564C133.875 1.29072 133.969 1.29304 134.121 1.21533L135.246 0.629395C135.789 0.349099 136.376 0.177293 136.992 0.148926L137.555 0.125488L138.117 0.090332C138.786 0.0598904 139.425 0.224374 140.004 0.523926L141.129 1.10986C141.298 1.19716 141.412 1.20699 141.492 1.20361L142.617 1.15674C143.021 1.13833 143.432 1.12851 143.836 1.1333L144.961 1.15674C145.156 1.1584 145.361 1.12519 145.582 1.05127L146.145 0.852051L146.707 0.664551C147.165 0.510334 147.632 0.402372 148.102 0.336426L148.664 0.254395L149.227 0.184082C149.822 0.100862 150.422 0.142231 150.996 0.312988L151.559 0.477051L152.121 0.652832C152.554 0.781891 152.985 0.937119 153.41 1.12158L154.535 1.61377C154.553 1.62123 154.566 1.62445 154.57 1.62549L154.582 1.61377L155.707 1.23877C156.159 1.08518 156.616 0.972401 157.078 0.898926L158.203 0.711426C158.759 0.623296 159.316 0.643629 159.867 0.758301L160.992 0.992676C161.302 1.05727 161.611 1.09871 161.918 1.12158L162.48 1.16846L163.043 1.20361C163.348 1.22619 163.663 1.22367 163.969 1.20361L165.094 1.1333C165.542 1.10409 165.993 1.10732 166.441 1.14502L167.566 1.23877C167.882 1.26524 168.2 1.2727 168.516 1.26221L169.078 1.25049L169.641 1.22705C170.149 1.21041 170.654 1.26336 171.152 1.37939L172.277 1.63721C172.517 1.69313 172.751 1.7198 172.98 1.70752L173.543 1.67236L174.105 1.64893C174.435 1.6311 174.77 1.59123 175.102 1.54346L176.227 1.37939C176.762 1.30256 177.3 1.3161 177.832 1.41455L178.957 1.62549C179.228 1.67588 179.5 1.6919 179.766 1.68408L180.891 1.66064C181.041 1.65615 181.221 1.61786 181.43 1.52002L181.992 1.25049L182.555 0.992676C183.101 0.736998 183.684 0.640142 184.266 0.734863L184.852 0.898926L185.977 1.3208C186.003 1.33047 186.017 1.33194 186.023 1.33252C186.026 1.33256 186.042 1.34183 186.07 1.33252L186.633 1.1333L187.195 0.945801C187.679 0.778993 188.181 0.662579 188.684 0.617676L189.809 0.523926C190.338 0.477018 190.87 0.502624 191.391 0.617676L192.516 0.875488C192.602 0.893731 192.692 0.894034 192.809 0.852051L193.371 0.641113L193.934 0.441895C194.67 0.178272 195.436 0.200782 196.148 0.500488L196.711 0.746582L197.273 0.980957C197.566 1.10379 197.852 1.19041 198.129 1.25049L198.691 1.37939L199.254 1.49658C199.493 1.54827 199.727 1.57016 199.957 1.55518L200.52 1.5083L201.082 1.47314C201.436 1.44938 201.794 1.41789 202.148 1.37939L203.273 1.26221C203.809 1.20394 204.351 1.23249 204.879 1.34424L205.441 1.46143L205.945 1.56689C205.956 1.56107 205.975 1.55487 205.992 1.54346L206.555 1.16846L207.117 0.805176C207.763 0.380556 208.536 0.162606 209.367 0.336426L210.492 0.570801C210.897 0.656113 211.307 0.752198 211.711 0.86377L212.273 1.02783L212.836 1.18018L213.445 0.875488L214.008 0.58252C214.74 0.209525 215.559 0.139082 216.352 0.441895L216.914 0.664551L217.477 0.875488C217.684 0.954502 217.869 0.983698 218.039 0.980957L218.602 0.969238H219.164C219.593 0.962346 220.025 0.976937 220.453 1.01611L221.016 1.06299L221.578 1.12158C221.847 1.14592 222.117 1.14045 222.387 1.10986L222.949 1.03955L223.512 0.980957C224.079 0.915886 224.648 0.961885 225.199 1.10986L225.762 1.26221L226.324 1.40283C226.557 1.46541 226.786 1.49392 227.004 1.48486L228.129 1.43799C228.344 1.42865 228.568 1.38153 228.809 1.29736L229.934 0.898926C230.435 0.722446 230.955 0.621726 231.48 0.594238L232.043 0.570801L232.605 0.535645C232.93 0.518988 233.264 0.491799 233.59 0.441895L234.152 0.348145L234.715 0.266113C235.32 0.17412 235.926 0.216222 236.508 0.39502L237.633 0.746582C237.973 0.851021 238.314 0.93741 238.652 1.01611L239.215 1.15674L239.777 1.28564C240.062 1.35181 240.343 1.39188 240.621 1.40283L241.184 1.42627L241.746 1.43799C241.961 1.44644 242.183 1.43111 242.414 1.36768L242.977 1.20361L243.539 1.05127C244.196 0.87048 244.872 0.882148 245.52 1.08643L246.082 1.27393L246.645 1.44971C246.899 1.52959 247.145 1.56676 247.383 1.57861L247.945 1.61377L248.508 1.63721C248.654 1.64432 248.82 1.61924 249.012 1.54346L250.137 1.09814C250.542 0.937781 250.948 0.793901 251.355 0.664551L252.48 0.312988C253.222 0.0776181 253.978 0.13203 254.672 0.441895L255.234 0.687988L255.797 0.945801C256.099 1.08105 256.399 1.1764 256.688 1.25049L257.25 1.40283L257.812 1.54346C257.991 1.5891 258.162 1.59387 258.328 1.56689L258.891 1.48486L259.453 1.39111C259.867 1.32426 260.28 1.27016 260.695 1.23877L261.258 1.19189L261.82 1.15674C262.092 1.1363 262.371 1.08305 262.652 1.00439L263.215 0.852051L263.777 0.687988C264.41 0.510533 265.064 0.505546 265.699 0.67627L266.824 0.980957C267.064 1.04602 267.302 1.08027 267.527 1.07471L268.652 1.05127C269.053 1.0414 269.459 1.04006 269.859 1.05127L270.984 1.07471C271.139 1.07836 271.314 1.05979 271.512 0.980957L272.074 0.746582L272.637 0.523926C273.387 0.226351 274.175 0.251139 274.91 0.570801L275.473 0.816895L276.035 1.05127C276.335 1.18173 276.629 1.28728 276.914 1.35596L277.477 1.48486L277.969 1.61377C277.977 1.60922 277.992 1.59815 278.004 1.59033L279.129 0.86377C279.683 0.507254 280.309 0.273949 280.992 0.242676L282.117 0.195801C282.628 0.172929 283.14 0.211168 283.641 0.324707L284.766 0.58252C285.219 0.685588 285.671 0.82872 286.113 1.00439L287.238 1.44971L288.363 0.980957C289.067 0.689391 289.825 0.659456 290.555 0.910645L291.117 1.10986L291.68 1.29736C291.949 1.38987 292.213 1.44826 292.465 1.47314L293.59 1.59033C293.769 1.60739 293.954 1.58786 294.152 1.53174L294.715 1.36768L295.277 1.21533C295.656 1.10798 296.036 1.0021 296.414 0.898926L296.977 0.746582L297.539 0.58252C298.169 0.410802 298.818 0.414539 299.449 0.58252L300.574 0.887207C300.672 0.912967 300.761 0.907184 300.867 0.875488L301.992 0.523926C302.793 0.278351 303.595 0.410235 304.289 0.793457L304.852 1.09814L305.414 1.41455L305.426 1.42627L305.965 1.27393L306.527 1.10986C306.955 0.987631 307.385 0.888952 307.816 0.816895L308.941 0.629395C309.564 0.52563 310.186 0.575561 310.781 0.77002L311.344 0.95752L311.906 1.1333C312.131 1.20644 312.339 1.24209 312.539 1.23877L313.664 1.21533C313.917 1.21101 314.174 1.17739 314.438 1.10986L315.562 0.828613C316.103 0.690025 316.66 0.643946 317.215 0.699707L318.34 0.816895C318.514 0.834072 318.695 0.815447 318.891 0.758301L320.016 0.430176C320.585 0.263187 321.172 0.209485 321.762 0.289551L322.324 0.371582L322.887 0.441895C323.454 0.519505 324.004 0.712089 324.516 0.980957L325.078 1.27393L325.523 1.5083L325.969 1.29736L326.531 1.02783C327.076 0.76441 327.668 0.610631 328.277 0.594238L328.84 0.570801L329.402 0.559082C330.06 0.542342 330.684 0.707986 331.254 1.00439L331.816 1.29736L332.145 1.47314L332.531 1.21533L333.094 0.828613L333.691 0.512207C334.11 0.351166 334.559 0.295696 335.016 0.371582L335.695 0.58252L336.82 1.09814C336.928 1.14785 336.974 1.1404 337.008 1.1333L337.57 1.02783L338.133 0.910645C338.799 0.772308 339.463 0.826441 340.09 1.06299L340.652 1.28564L341.215 1.49658C341.461 1.58988 341.7 1.6341 341.918 1.64893L342.48 1.68408L343.043 1.73096C343.127 1.73603 343.243 1.7169 343.406 1.63721L343.969 1.36768L344.531 1.08643C345.077 0.820183 345.666 0.724627 346.254 0.816895L346.852 0.980957L347.977 1.40283C348.164 1.47416 348.323 1.50456 348.469 1.49658L349.594 1.42627C349.687 1.42071 349.838 1.38423 350.039 1.26221L351.164 0.58252C351.809 0.192628 352.56 0.0125716 353.355 0.172363L353.918 0.277832L354.48 0.39502C354.938 0.487483 355.393 0.624616 355.84 0.793457L356.062 0.875488H358.5C359.04 0.875488 359.49 1.17452 359.754 1.60205L360 1.83643V2.51611C360 3.03497 359.742 3.3957 359.59 3.55908C359.442 3.71699 359.292 3.80855 359.215 3.85205C359.057 3.94027 358.905 3.98466 358.84 4.00439C358.688 4.05037 358.523 4.08537 358.383 4.10986L358.008 4.18018L357.633 4.23877C357.007 4.34826 356.404 4.2027 355.91 4.01611L354.785 3.59424C354.484 3.48028 354.185 3.39535 353.895 3.33643L353.332 3.21924L352.781 3.12549C352.768 3.13123 352.739 3.13194 352.711 3.14893L351.586 3.82861C351.039 4.15964 350.435 4.37479 349.781 4.41455L348.656 4.48486C348.054 4.52063 347.459 4.41785 346.898 4.20361L346.336 3.99268L345.809 3.80518L345.281 4.06299L344.719 4.33252C344.135 4.61774 343.497 4.76436 342.832 4.71924L341.707 4.64893C341.178 4.61263 340.662 4.48702 340.16 4.29736L339.035 3.87549C338.914 3.82956 338.824 3.82329 338.742 3.84033L337.617 4.07471C336.901 4.22337 336.197 4.12645 335.555 3.82861L334.992 3.55908L334.641 3.40674L334.219 3.68799L333.656 4.07471C333.298 4.31834 332.862 4.50362 332.367 4.54346C331.866 4.58314 331.401 4.46142 330.996 4.25049L329.871 3.66455C329.693 3.57175 329.562 3.55669 329.473 3.55908L328.91 3.5708L328.348 3.59424C328.209 3.59872 328.044 3.62693 327.844 3.72314L327.281 4.00439L326.719 4.27393C325.907 4.66644 325.022 4.64129 324.234 4.22705L323.672 3.92236L323.109 3.62939C322.874 3.5064 322.669 3.44366 322.488 3.41846L321.926 3.33643L321.363 3.26611C321.205 3.24443 321.038 3.24905 320.859 3.30127L319.734 3.62939C319.181 3.79164 318.61 3.85118 318.035 3.79346L317.473 3.73486L316.91 3.68799C316.716 3.6687 316.52 3.68174 316.312 3.73486L315.188 4.01611C314.703 4.1404 314.207 4.20709 313.711 4.21533L312.586 4.23877C312.037 4.24772 311.493 4.16393 310.969 3.99268L309.844 3.61768C309.691 3.56864 309.56 3.56144 309.434 3.58252L308.309 3.77002C307.991 3.82304 307.67 3.90058 307.348 3.99268L306.785 4.15674L306.223 4.30908C305.428 4.53623 304.645 4.41716 303.961 4.03955L303.398 3.72314L302.836 3.41846H302.824L302.32 3.5708L301.758 3.74658C301.118 3.94279 300.45 3.95451 299.801 3.78174L298.676 3.47705C298.559 3.44637 298.453 3.44582 298.336 3.47705L297.773 3.64111L297.211 3.79346C296.841 3.89427 296.468 3.99321 296.098 4.09814L295.535 4.26221L294.973 4.41455C294.423 4.57046 293.854 4.62303 293.285 4.56689L292.723 4.52002L292.16 4.46143C291.665 4.41212 291.173 4.29785 290.695 4.1333L290.133 3.9458L289.57 3.74658H289.547C289.541 3.74802 289.529 3.75126 289.512 3.7583L288.387 4.22705C287.655 4.53005 286.876 4.5319 286.137 4.23877L285.012 3.79346C284.707 3.67223 284.404 3.57947 284.109 3.51221L282.984 3.25439C282.738 3.19842 282.494 3.1738 282.258 3.18408L281.695 3.20752L281.133 3.24268C281.07 3.2455 280.94 3.25793 280.746 3.3833L279.621 4.10986C278.961 4.53577 278.173 4.74487 277.336 4.54346L276.773 4.40283L276.211 4.27393C275.746 4.1621 275.29 4.00101 274.84 3.80518L274.277 3.55908L273.715 3.32471L273.176 3.53564L272.613 3.7583C272.064 3.97707 271.484 4.09131 270.891 4.07471L269.766 4.05127C269.419 4.04165 269.07 4.03098 268.723 4.03955L268.16 4.06299L267.598 4.07471C267.076 4.08742 266.558 4.02397 266.051 3.88721L264.926 3.58252C264.814 3.55223 264.711 3.55134 264.598 3.58252L264.035 3.73486L263.473 3.89893C263.007 4.02952 262.531 4.10886 262.055 4.14502L261.492 4.19189L260.93 4.22705C260.598 4.25207 260.255 4.29026 259.922 4.34424L258.797 4.53174C258.216 4.62516 257.632 4.59606 257.062 4.44971L256.5 4.30908L255.938 4.15674C255.478 4.03859 255.023 3.88673 254.578 3.68799L254.016 3.43018L253.453 3.18408L253.406 3.16064L253.395 3.17236L252.27 3.52393C251.929 3.6321 251.582 3.75117 251.238 3.88721L250.113 4.33252C249.556 4.55345 248.97 4.66618 248.367 4.63721L247.805 4.60205L247.242 4.57861C246.733 4.55378 246.222 4.46427 245.73 4.30908L244.605 3.95752C244.505 3.92638 244.428 3.92059 244.336 3.9458L243.211 4.25049C242.693 4.3931 242.164 4.459 241.629 4.43799L240.504 4.39111C240.032 4.37253 239.562 4.31162 239.098 4.20361L237.973 3.9458C237.563 3.85061 237.15 3.74289 236.742 3.61768L235.617 3.26611C235.453 3.21629 235.303 3.20912 235.16 3.23096L234.598 3.31299L234.035 3.40674C233.614 3.47106 233.192 3.51377 232.77 3.53564L232.207 3.55908L231.645 3.59424C231.423 3.60563 231.187 3.64889 230.941 3.73486L229.816 4.1333C229.309 4.31185 228.778 4.41585 228.246 4.43799L227.121 4.48486C226.591 4.50651 226.065 4.44694 225.551 4.30908L224.426 4.00439C224.23 3.95171 224.044 3.93744 223.863 3.95752L223.301 4.02783L222.738 4.08643C222.261 4.1411 221.774 4.14186 221.297 4.09814L220.172 4.00439C219.851 3.97518 219.531 3.96408 219.211 3.96924H218.648L218.086 3.98096C217.507 3.9902 216.939 3.88286 216.398 3.67627L215.836 3.46533L215.332 3.27783L214.805 3.54736L214.242 3.82861C213.564 4.17449 212.806 4.28604 212.039 4.07471L211.477 3.91064L210.914 3.7583C210.57 3.66325 210.225 3.58443 209.883 3.51221L209.32 3.39502L208.805 3.27783C208.793 3.28374 208.776 3.30082 208.758 3.31299L208.195 3.67627L207.633 4.05127C206.986 4.4756 206.203 4.68442 205.371 4.5083L204.246 4.27393C204.027 4.22808 203.814 4.21592 203.602 4.23877L203.039 4.29736L202.477 4.36768C202.083 4.41054 201.687 4.44661 201.293 4.47314L200.168 4.54346C199.65 4.57824 199.13 4.53639 198.621 4.42627L198.059 4.30908L197.496 4.18018C197.025 4.07835 196.557 3.93803 196.102 3.74658L195.539 3.51221L194.977 3.26611C194.963 3.2606 194.944 3.26669 194.941 3.26611L193.816 3.66455C193.186 3.8909 192.521 3.95142 191.859 3.80518L190.734 3.54736C190.508 3.49791 190.284 3.49279 190.066 3.51221L188.941 3.60596C188.696 3.6283 188.444 3.69076 188.18 3.78174L187.617 3.96924L187.055 4.16846C186.343 4.41372 185.598 4.3994 184.898 4.1333L184.336 3.91064L183.809 3.72314L183.258 3.96924L182.695 4.22705C182.155 4.47998 181.583 4.63068 180.984 4.64893L180.422 4.67236L179.859 4.68408C179.377 4.69851 178.895 4.66691 178.418 4.57861L177.293 4.36768C177.078 4.3277 176.86 4.32543 176.648 4.35596L175.523 4.52002C175.106 4.58006 174.688 4.61457 174.27 4.63721L173.707 4.67236L173.145 4.6958C172.625 4.72387 172.107 4.6853 171.598 4.56689L171.035 4.42627L170.473 4.29736C170.222 4.23908 169.975 4.21906 169.734 4.22705L169.172 4.25049L168.609 4.26221C168.177 4.27649 167.741 4.26343 167.309 4.22705L166.184 4.1333C165.884 4.10827 165.58 4.11366 165.281 4.1333L164.156 4.20361C163.715 4.23239 163.273 4.22429 162.832 4.19189L162.27 4.15674L161.707 4.10986C161.265 4.07721 160.821 4.01363 160.383 3.92236L159.258 3.68799C159.059 3.64666 158.865 3.64549 158.672 3.67627L158.109 3.77002L157.547 3.85205C157.26 3.89773 156.966 3.97343 156.668 4.07471L156.105 4.26221L155.543 4.46143C154.804 4.7119 154.044 4.67246 153.34 4.36768L152.215 3.87549C151.893 3.73585 151.569 3.61759 151.254 3.52393L150.129 3.1958C149.956 3.14479 149.801 3.12798 149.648 3.14893L149.086 3.23096L148.523 3.30127C148.245 3.34022 147.958 3.41455 147.668 3.51221L146.543 3.88721C146.017 4.06428 145.467 4.15157 144.914 4.14502H144.352L143.789 4.1333C143.445 4.12933 143.102 4.1411 142.758 4.15674L141.633 4.20361C140.963 4.23414 140.325 4.06963 139.746 3.77002L139.184 3.48877L138.621 3.1958C138.452 3.10806 138.338 3.08703 138.258 3.09033L137.695 3.11377L137.133 3.14893C137 3.15494 136.833 3.18456 136.629 3.28955L135.504 3.87549C134.909 4.18293 134.249 4.33354 133.559 4.27393L132.434 4.18018C132.152 4.15589 131.872 4.1639 131.59 4.19189L131.027 4.23877L130.465 4.29736C129.827 4.36113 129.198 4.2561 128.613 4.01611L128.051 3.79346L127.488 3.55908C127.414 3.52928 127.385 3.53713 127.348 3.54736L126.785 3.69971L126.223 3.86377C125.822 3.97655 125.418 4.07887 125.016 4.16846L124.453 4.28564L123.891 4.41455C123.338 4.53771 122.775 4.55713 122.215 4.47314L121.09 4.30908C120.831 4.27022 120.573 4.26327 120.316 4.28564L119.191 4.37939C118.437 4.44483 117.741 4.22878 117.141 3.85205L116.578 3.50049L116.016 3.16064L115.559 3.28955L114.996 3.46533C114.564 3.5942 114.12 3.69581 113.684 3.77002L112.559 3.95752C112.096 4.03588 111.631 4.07031 111.164 4.06299H110.602L110.039 4.05127C109.49 4.04265 108.953 3.93374 108.434 3.74658L107.309 3.34814C107.059 3.25816 106.819 3.19903 106.594 3.18408L105.469 3.11377C105.31 3.10346 105.135 3.12652 104.941 3.1958L103.816 3.59424C103.261 3.79261 102.684 3.88912 102.094 3.85205L100.969 3.78174C100.619 3.75968 100.264 3.7393 99.9141 3.73486H99.3516L98.7891 3.72314C98.4532 3.71899 98.1173 3.72631 97.7812 3.74658L96.6562 3.81689C96.1055 3.85024 95.5589 3.78194 95.0273 3.62939L94.4648 3.46533L93.9023 3.31299C93.6317 3.23508 93.3634 3.18645 93.1055 3.17236L92.543 3.13721L91.9805 3.11377C91.8058 3.10423 91.6223 3.12689 91.418 3.1958L90.293 3.5708C89.7176 3.7649 89.1183 3.83003 88.5117 3.7583L87.9492 3.69971L87.3867 3.62939C87.1365 3.5998 86.8876 3.60793 86.6367 3.64111L85.5117 3.78174C85.1414 3.83087 84.7688 3.88215 84.3984 3.93408L83.2734 4.09814C82.7953 4.16521 82.3125 4.17905 81.832 4.14502L81.2695 4.10986L80.707 4.06299C80.4447 4.04438 80.1756 4.05727 79.9102 4.09814L79.3477 4.18018L78.7852 4.27393C78.2583 4.35444 77.7294 4.34696 77.2031 4.26221L76.6406 4.16846L76.0781 4.08643C75.8487 4.04924 75.6145 4.0438 75.3867 4.07471L74.8242 4.14502L74.2617 4.22705C73.9181 4.27373 73.5749 4.33544 73.2305 4.40283L72.1055 4.61377C71.5724 4.71816 71.0263 4.74345 70.4883 4.67236L69.9258 4.59033L69.3633 4.52002C68.802 4.4455 68.2667 4.26449 67.7578 4.00439L67.1953 3.72314L66.6914 3.46533L66.2109 3.66455L65.6484 3.91064C65.0949 4.14484 64.5074 4.26603 63.9023 4.25049L63.3398 4.22705L62.7773 4.21533C62.2486 4.20102 61.7253 4.10144 61.2188 3.93408L60.6562 3.7583L60.0938 3.5708C59.8844 3.50163 59.6894 3.48002 59.5078 3.48877L58.3828 3.53564C57.9089 3.55837 57.4357 3.53645 56.9648 3.46533L56.4023 3.3833L55.8398 3.28955C55.6178 3.25596 55.3945 3.26573 55.1719 3.30127L54.6094 3.3833L54.0469 3.47705C53.469 3.56902 52.8913 3.53717 52.3242 3.39502L51.7617 3.25439L51.2578 3.13721L51.2344 3.14893L50.6719 3.50049L50.1094 3.84033C49.5449 4.19253 48.9041 4.4165 48.2109 4.42627L47.0859 4.44971C46.5505 4.45657 46.0191 4.37193 45.5039 4.21533L44.9414 4.05127L44.3789 3.87549C44.1153 3.79522 43.8536 3.74786 43.6055 3.73486L43.043 3.71143L42.4805 3.67627C42.2636 3.66527 42.0426 3.68837 41.8125 3.74658L41.25 3.88721L40.6875 4.03955C40.2799 4.14344 39.8662 4.22323 39.457 4.29736L38.332 4.5083C37.7303 4.6172 37.1264 4.57774 36.5391 4.41455L35.4141 4.10986C35.0792 4.0166 34.7387 3.93828 34.4062 3.87549L33.2812 3.66455C32.9757 3.60692 32.6693 3.56077 32.3672 3.54736L31.2422 3.50049C30.9826 3.48926 30.7217 3.51085 30.457 3.55908L29.8945 3.66455L29.332 3.7583C28.8392 3.84815 28.3418 3.88397 27.8438 3.85205L26.7188 3.78174C26.5857 3.77314 26.4323 3.78999 26.25 3.86377L25.6875 4.08643L25.125 4.3208C24.1971 4.69582 23.2805 4.48995 22.5586 3.96924L21.4336 3.14893C21.2658 3.02811 21.1802 3.02077 21.1641 3.02002L20.0391 2.99658C19.9317 2.99471 19.7905 3.02172 19.6055 3.11377L18.4805 3.67627C17.7665 4.03111 16.9733 4.09995 16.1953 3.82861L15.0703 3.43018L15.0352 3.44189L13.9102 3.93408C13.4347 4.1426 12.9456 4.30286 12.4453 4.39111L11.8828 4.48486L11.3203 4.59033C10.4589 4.74123 9.67318 4.4619 9.04688 4.00439L8.48438 3.59424L8.00391 3.25439L7.64062 3.3833L7.07812 3.59424C6.51754 3.79976 5.93071 3.89439 5.33203 3.85205L4.76953 3.80518L4.20703 3.77002C3.93752 3.75089 3.47436 3.75837 2.77734 3.80518L1.69922 3.87549H1.5C0.671573 3.87549 2.41596e-08 3.20392 0 2.37549C0 1.54706 0.671573 0.875488 1.5 0.875488L2.57812 0.805176C3.31148 0.755979 3.93863 0.736081 4.41797 0.77002L4.98047 0.816895L5.54297 0.852051C5.69311 0.86271 5.85862 0.850738 6.04688 0.781738L7.17188 0.359863L7.86328 0.20752C8.31426 0.171494 8.74603 0.264297 9.14062 0.441895L9.70312 0.77002L10.8281 1.59033C10.8483 1.60485 10.8627 1.61836 10.875 1.62549L11.3672 1.53174L11.9297 1.43799C12.1776 1.39408 12.442 1.31174 12.7148 1.19189L13.8398 0.699707C14.5488 0.389348 15.3112 0.346548 16.0547 0.605957L16.6172 0.805176L17.1562 0.992676L17.707 0.711426L18.2695 0.430176C18.8337 0.149451 19.4443 -0.0141378 20.0859 -0.00341797L21.2109 0.0200195Z" fill="#A89484"/>
</svg>
